G04 DesignSpark PCB Gerber Version 9.0 Build 5138 *
%FSLAX35Y35*%
%MOIN*%
%ADD24R,0.01000X0.02756*%
%ADD13R,0.01181X0.04724*%
%ADD22R,0.01600X0.03500*%
%ADD72R,0.01700X0.07200*%
%ADD25R,0.01800X0.04600*%
%ADD70R,0.02165X0.04724*%
%ADD79R,0.02283X0.04764*%
%ADD16R,0.02362X0.04724*%
%ADD15R,0.02400X0.02400*%
%ADD21R,0.02600X0.04200*%
%ADD20R,0.03937X0.04291*%
%ADD71R,0.03940X0.04330*%
%ADD77R,0.05500X0.06300*%
%ADD28R,0.06000X0.06000*%
%ADD19R,0.06300X0.06300*%
%ADD10C,0.00800*%
%ADD11C,0.02000*%
%ADD75C,0.03600*%
%ADD12C,0.04000*%
%ADD23R,0.02756X0.01000*%
%ADD14R,0.04724X0.01181*%
%ADD17R,0.02400X0.02400*%
%ADD74R,0.06300X0.02700*%
%ADD27R,0.13800X0.03900*%
%ADD29R,0.04291X0.03937*%
%ADD18R,0.04330X0.03940*%
%ADD78R,0.06300X0.04700*%
%ADD76R,0.08700X0.04700*%
%ADD73R,0.07100X0.05500*%
%ADD26R,0.13400X0.05900*%
X0Y0D02*
D02*
D10*
X43100Y364829D02*
Y366797D01*
Y368766*
Y370734*
X48218Y366797D02*
X64163D01*
X65600Y368234*
X48218Y368766D02*
X56131D01*
X60600Y373234*
X48218Y370734D02*
X50600D01*
X55600Y375734*
Y358234D02*
X58100D01*
X95785Y320549*
X98471Y317864*
X128159*
X60600Y350734D02*
X93020Y318315D01*
X95439Y315895*
X128159*
X60600Y384750D02*
Y380734D01*
X55600Y375734*
X61860Y420541D02*
Y423100D01*
X60600*
Y428100*
X63800Y384750D02*
Y376434D01*
X60600Y373234*
X63800Y391250D02*
Y394900D01*
X60600Y398100*
X67000Y384750D02*
Y369634D01*
X65600Y368234*
X67000Y391250D02*
Y394500D01*
X70600Y398100*
X69340Y410659D02*
Y405600D01*
X60600*
X55600Y400600*
Y396250*
X60600Y391250*
X69340Y420541D02*
Y423100D01*
X70600*
Y428100*
X70200Y365734D02*
Y358234D01*
X95334Y333100*
X137805*
Y325541*
X70200Y365734D02*
Y364829D01*
X48218*
X70200Y384750D02*
Y365734D01*
Y391250D02*
X73691D01*
X93100Y410659*
X96860*
X78000Y294600D02*
X80500D01*
X78000Y298600D02*
Y294600D01*
X78100Y364829D02*
Y366797D01*
Y368766D02*
Y366797D01*
Y368766D02*
Y370734D01*
X79400Y156100D02*
X86100D01*
X100600Y170600*
Y218100*
X79400Y169000D02*
X84000D01*
X88100Y173100*
Y220600*
X90600Y223100*
Y235600*
X79400Y177600D02*
X82600D01*
X85600Y180600*
Y225600*
X80500Y294600D02*
X85600D01*
X80600Y453100D02*
X78100Y450600D01*
Y413100*
X75659Y410659*
X69340*
X80600Y463100D02*
X75600Y458100D01*
Y445600*
X63100*
X58100Y440600*
Y428100*
X60600*
X83218Y366797D02*
X99163D01*
X100600Y368234*
X83218Y368766D02*
X93631D01*
X95600Y370734*
X83218D02*
X88100D01*
X90600Y373234*
X85700Y287600D02*
X81100D01*
X78100Y290600*
X90600Y355734D02*
X98100Y348234D01*
Y348100*
X108100Y338100*
X138100*
X139773Y336427*
Y325541*
X90600Y453100D02*
X83100Y445600D01*
Y428100*
X90600Y463100D02*
X95600Y458100D01*
Y448100*
X88100Y440600*
Y418100*
X95541Y410659*
X96860*
X95600Y214085D02*
Y170400D01*
X85600Y160400*
X79400*
X95600Y268100D02*
Y214085D01*
Y358234D02*
X103100Y350734D01*
Y350600*
X113100Y340600*
X140600*
X141742Y339458*
Y325541*
X95600Y387250D02*
Y378234D01*
X90600Y373234*
X95600Y393750D02*
X92450D01*
X90600Y395600*
Y403100*
X93100Y405600*
X103100*
X104340Y406840*
Y410659*
X95600Y428100D02*
Y438100D01*
X96860Y420541D02*
Y426840D01*
X95600Y428100*
X98800Y387250D02*
Y373934D01*
X95600Y370734*
X98800Y393750D02*
Y397400D01*
X95600Y400600*
X102000Y387250D02*
Y369634D01*
X100600Y368234*
X102000Y393750D02*
Y397000D01*
X105600Y400600*
X104340Y410659D02*
X108100D01*
X110600Y413159*
Y430600*
X108100Y433100*
Y445600*
X100600Y453100*
X104340Y420541D02*
Y426840D01*
X105600Y428100*
X105200Y387250D02*
Y356000D01*
X115600Y345600*
X143179*
X145679Y343100*
Y325541*
X105200Y387250D02*
Y364829D01*
X83218*
X105200Y393750D02*
X108691D01*
X125600Y410659*
X105600Y188100D02*
Y133100D01*
X100600Y128100*
Y118100*
X111700Y363429D02*
Y365397D01*
Y367366D02*
Y369334D01*
Y367366D02*
Y365397D01*
X115600Y428100D02*
X110600Y433100D01*
Y453100*
X116818Y365397D02*
X131797D01*
X134500Y368100*
X116818Y367366D02*
X127231D01*
X129200Y369334*
X116818D02*
X120600D01*
X123100Y371834*
X120600Y288100D02*
X127923D01*
X128159Y288336*
X120600Y438100D02*
Y453100D01*
Y463100D02*
X125600Y458100D01*
Y428100*
Y410659D02*
X125541D01*
X120600Y415600*
Y430600*
X113100Y438100*
Y445600*
X115600Y448100*
Y458100*
X110600Y463100*
X128100Y387250D02*
Y376834D01*
X123100Y371834*
X128100Y393750D02*
X124950D01*
X123100Y395600*
Y403100*
X125600Y405600*
X134340*
X136840Y408100*
Y410659*
X128159Y292273D02*
X117273D01*
X115600Y290600*
Y287500*
X108200Y280100*
X128159Y296210D02*
X123290D01*
X123100Y296400*
X118900*
X115600Y293100*
X104800*
X100600Y288900*
X128159Y298179D02*
X133100D01*
Y295600*
X131742Y294242*
X128159*
Y300147D02*
X122647D01*
X120600Y298100*
X118100*
X115600Y295600*
X110600*
X108100Y298100*
X128159Y302116D02*
X121584D01*
X120600Y303100*
X128159Y304084D02*
X124616D01*
X120600Y308100*
X115600*
X113100Y310600*
X75600*
X73100Y308100*
Y294600*
X78000*
X128159Y306053D02*
X125147D01*
X120600Y310600*
X128159Y306053D02*
X136053D01*
X138100Y308100*
X128159Y308021D02*
Y309990D01*
Y308021D02*
X133021D01*
X138100Y313100*
X128159Y311958D02*
X120600D01*
X128159Y313927D02*
X133100D01*
Y310600*
X132490Y309990*
X128159*
X129360Y410659D02*
X125600D01*
X129360Y420541D02*
Y424340D01*
X125600Y428100*
X130600Y275600D02*
X135659Y280659D01*
X135836*
X130600Y463100D02*
X135600Y458100D01*
Y445600*
X138100Y443100*
X143100*
X148100Y438100*
Y428100*
X163041Y413159*
X164360*
X131206Y234994D02*
X136466D01*
X131300Y387250D02*
Y371434D01*
X129200Y369334*
X131300Y393750D02*
Y397400D01*
X128100Y400600*
X133100Y198100D02*
X128100Y193100D01*
Y186600*
X129600Y185100*
Y178100*
X133100Y353234D02*
X135600Y350734D01*
X143100*
Y348234*
X147647Y343687*
Y325541*
X134500Y368100D02*
Y387250D01*
Y393750D02*
Y397000D01*
X138100Y400600*
X135069Y290305D02*
X128159D01*
X135600Y125600D02*
Y108100D01*
Y248100D02*
X130600Y253100D01*
X135836Y280659D02*
Y290069D01*
Y325541D02*
X98294D01*
X65600Y358234*
X136466Y206206D02*
X128706D01*
X123100Y200600*
Y175500*
X130600Y168000*
X161200*
X136840Y420541D02*
Y426840D01*
X138100Y428100*
X137700Y363429D02*
X116818D01*
X137700Y387250D02*
Y381000D01*
X140600Y378100*
Y363263*
X140589Y363253*
X137700Y393750D02*
X144951D01*
X164360Y413159*
X137805Y280659D02*
Y275305D01*
X135600Y273100*
X138100Y305600D02*
X134616Y302116D01*
X128159*
X138100Y355734D02*
X140600Y353234D01*
X145600*
Y348234*
X149616Y344219*
Y325541*
X138100Y428100D02*
Y435600D01*
X130600Y443100*
Y453100*
X138927Y268927D02*
X139773D01*
Y280659*
X139025Y206206D02*
Y212175D01*
X135600Y215600*
X139025Y244675D02*
Y234994D01*
X139773Y280659D02*
Y293100D01*
X140589Y363253D02*
X137700Y363429D01*
X140600Y453100D02*
Y448100D01*
X153100Y435600*
Y428100*
X163100Y418100*
X171840*
Y413159*
X140600Y463100D02*
X145600Y458100D01*
Y448100*
X163100Y430600*
X141585Y206206D02*
Y219615D01*
X140600Y220600*
X119615*
X115600Y216585*
Y214085*
X141742Y280659D02*
Y266958D01*
X143100Y265600*
Y358234D02*
X148100Y353234D01*
Y348234*
X151584Y344750*
Y325541*
X143100Y438100D02*
Y416919D01*
X136840Y410659*
X143710Y325541D02*
Y340600D01*
X141210Y343100*
X115600*
X105600Y353100*
Y353234*
X100600Y358234*
Y360734*
X144143Y206206D02*
Y201643D01*
X140600Y198100*
X133100*
X144143Y234994D02*
Y229143D01*
X143100Y228100*
X130600*
X123100Y235600*
X146702Y206206D02*
Y201702D01*
X138100Y193100*
X146702Y234994D02*
Y229202D01*
X143100Y225600*
X110600*
Y118100*
X147647Y280659D02*
Y261663D01*
X141585Y255600*
Y234994*
X148000Y176100D02*
Y176200D01*
X138500*
X136600Y178100*
X149261Y206206D02*
Y196761D01*
X145600Y193100*
X149261Y234994D02*
Y251939D01*
X149616Y280659D02*
Y261072D01*
X144143Y255600*
Y234994*
X150600Y182600D02*
Y185600D01*
X154380Y189380*
Y206206*
X150600Y364829D02*
Y366797D01*
Y368766*
Y370734*
Y380466*
Y453100D02*
Y448100D01*
X158100Y440600*
X170600*
X173100Y438100*
Y430600*
X151584Y280659D02*
Y290600D01*
X151820Y206206D02*
Y191820D01*
X148100Y188100*
X133100*
X151820Y234994D02*
Y226820D01*
X148100Y223100*
X153553Y325541D02*
Y345281D01*
X150600Y348234*
Y355600*
X143100Y363100*
X140589Y363253*
X154380Y234994D02*
Y264380D01*
X155600Y265600*
X155521Y280659D02*
Y276801D01*
X151820Y273100*
Y234994*
X155521Y325541D02*
Y343234D01*
X160521Y348234*
X160600*
X163100Y350734*
Y358234*
X155718Y364829D02*
Y358352D01*
X155600Y358234*
Y348234*
X155718Y366797D02*
X173100D01*
X155718Y368766D02*
X166131D01*
X168100Y370734*
X155718D02*
X160600D01*
X163100Y373234*
X156939Y206206D02*
Y184439D01*
X155600Y183100*
X156939Y234994D02*
Y259439D01*
X158100Y260600*
X157490Y325541D02*
Y342624D01*
X168100Y353234*
Y363234*
X159458Y325541D02*
Y342093D01*
X173100Y355734*
Y366797*
X159498Y206206D02*
Y189202D01*
X160600Y188100*
X159498Y234994D02*
Y225600D01*
X154380Y220482*
Y206206*
X159498Y234994D02*
Y244498D01*
X163100Y248100*
X160600Y463100D02*
X165600Y458100D01*
Y448100*
X168100Y445600*
X180600*
X183100Y443100*
Y433100*
X185600Y430600*
X161200Y168000D02*
Y170000D01*
X158100Y173100*
X162057Y206206D02*
Y196643D01*
X165600Y193100*
X163100Y313100D02*
X165600D01*
X168100Y310600*
Y309990*
X173041*
X163100Y382384D02*
Y373234D01*
Y430600D02*
Y425600D01*
X164360*
Y423041*
X163395Y280659D02*
Y268100D01*
X163248Y267952*
X175305Y255895*
Y228100*
X175600*
X163395Y325541D02*
Y333530D01*
X188631Y358766*
Y360482*
X164615Y206206D02*
Y214085D01*
X163100Y215600*
X164615Y234994D02*
Y227115D01*
X163100Y225600*
X165364Y280659D02*
Y290305D01*
Y290600D02*
Y290305D01*
Y325541D02*
X169301D01*
Y329830*
X183100Y343629*
Y348100*
X165600Y193100D02*
Y183500D01*
X160100Y178000*
X166300Y382384D02*
Y377400D01*
X168100Y375600*
Y370734*
X166300Y388884D02*
Y396160D01*
X164360Y398100*
X167175Y206206D02*
Y201525D01*
X168100Y200600*
X170600*
X168100Y423041D02*
Y435600D01*
X169500Y382384D02*
Y379334D01*
X170600Y378234*
Y378100*
X173100Y375600*
Y366797*
X169500Y388884D02*
Y395760D01*
X171840Y398100*
X169734Y234994D02*
Y228100D01*
X167175Y225541*
Y206206*
X170600Y253100D02*
Y235860D01*
X169734Y234994*
X170600Y463100D02*
Y453100D01*
X171840Y413159D02*
Y409340D01*
X168100Y405600*
X163100*
X160600Y403100*
Y391384*
X163100Y388884*
X172700D02*
Y390200D01*
X178100Y395600*
Y408159*
X183100Y413159*
X186860*
X173041Y288336D02*
Y285541D01*
X170600Y283100*
X173041Y290305D02*
X180305D01*
X180600Y290600*
X173041Y290305D02*
X165364D01*
X173041Y292273D02*
X168927D01*
X163100Y298100*
X173041Y294242D02*
X176958D01*
X180600Y290600*
X173041Y296210D02*
X182490D01*
X173041Y298179D02*
X168100D01*
X173041Y300147D02*
X185747D01*
X190600Y305000*
X193000*
X173041Y302116D02*
X168100D01*
X173041D02*
X184616D01*
X188100Y305600*
Y313100*
X173041Y304084D02*
X179084D01*
X183100Y308100*
X173041Y304084D02*
Y306053D01*
X167647*
X165600Y308100*
X173041Y308021D02*
X178021D01*
X183100Y313100*
X188100*
X173041Y313927D02*
X173034Y314903D01*
Y315889*
X173041Y315895*
X180795*
X188000Y323100*
Y328600*
X173041Y317864D02*
X167864D01*
X163100Y313100*
X173100Y348234D02*
X161427Y336561D01*
Y325541*
X173100Y430600D02*
Y425600D01*
X171840*
Y423041*
X178100Y188100D02*
Y155600D01*
X185600Y148100*
X193100*
X182037Y321801D02*
X178100Y317864D01*
X173041*
X183100Y373100D02*
Y379900D01*
X186300Y383100*
Y387250*
X183100D02*
Y385600D01*
X178100Y380600*
Y368100*
X181013*
X188631Y360482*
X183100Y393750D02*
Y398100D01*
X180600Y400600*
Y405600*
X183100Y408100*
X193100*
X194340Y409340*
Y413159*
X185600Y430600D02*
Y424301D01*
X186860Y423041*
X186300Y393750D02*
Y402400D01*
X185600Y403100*
X186860Y413159D02*
X178100Y421919D01*
Y440600*
X175600Y443100*
X160600*
X155600Y448100*
Y458100*
X150600Y463100*
X188000Y328600D02*
X195600D01*
X195700Y328700*
X189500Y387250D02*
Y393750D01*
Y399500*
X189600Y250600D02*
X178100D01*
Y260600*
X190600Y360482D02*
Y355600D01*
X183100Y348100*
X190600Y365600D02*
X188631D01*
X190600D02*
X192569D01*
X190600Y435600D02*
Y423041D01*
X192569Y360482D02*
Y365600D01*
Y360482D02*
Y358100D01*
X194537Y356131*
X192569Y365600D02*
Y368231D01*
X190600Y370200*
Y386150*
X189500Y387250*
X192700Y393750D02*
X199950D01*
X200600Y393100*
X193000Y305000D02*
X200500D01*
X194340Y413159D02*
X198100Y416919D01*
Y440600*
X194537Y360482D02*
X198100Y356919D01*
Y348100*
X195700Y345700*
Y332600*
X194537Y360482D02*
X194655Y360600D01*
X198100*
Y378950*
X192700Y384350*
Y387250*
X194537Y365600D02*
Y373100D01*
Y365600D02*
X192569D01*
X195700Y332600D02*
X188100D01*
X188000Y332500*
X200600Y163100D02*
X204800D01*
X210400Y157500*
X200600Y178100D02*
Y198100D01*
Y393100D02*
X205600Y398100D01*
Y465600*
X200600Y470600*
X175600*
X170600Y465600*
Y463100*
X210600Y215600D02*
Y178100D01*
X212600Y292836D02*
Y291100D01*
X215600Y288100*
X232100*
X233100Y289100*
X215600Y407000D02*
Y393100D01*
Y435600D02*
Y415600D01*
X218159D02*
Y421659D01*
X225600Y429100*
X218200Y140100D02*
X201100D01*
X193100Y148100*
X219100Y273100D02*
Y266500D01*
X220100Y265500*
X219100Y273100D02*
Y275340D01*
X216340Y278100*
Y282600*
X220080D02*
X232600D01*
X233100Y282100*
X220100Y265500D02*
X223100D01*
X228200Y270600*
X230600*
X240600Y280600*
X245600*
X248100Y278100*
Y275458*
X220600Y178100D02*
Y175500D01*
X213100Y168000*
X188100*
X220718Y415600D02*
Y417218D01*
X225600Y422100*
X230600Y178100D02*
Y208100D01*
Y203100*
X220600Y193100*
X230700Y140100D02*
X227800D01*
X210400Y157500*
X234600Y328100D02*
Y341800D01*
X241600Y348800*
X237600Y217900D02*
Y215100D01*
X230600Y208100*
X237600Y234300D02*
Y217900D01*
X241600Y328100D02*
X244100D01*
X256742Y315458*
X256860*
X248100Y275458D02*
X251840D01*
X256860Y315458D02*
Y308860D01*
X253600Y305600*
Y300700*
X260100Y197900D02*
Y172600D01*
X258100Y170600*
X260100Y214300D02*
Y197900D01*
X260500Y281100D02*
X256482D01*
X251840Y285742*
D02*
D11*
X13100Y146400D02*
X23400D01*
X39700Y130100*
X13100Y159800D02*
X63200D01*
X68100Y164700*
X70600*
X39700Y191100D02*
X68100D01*
X43100Y370734D02*
Y375600D01*
X48100Y380600*
X61860Y410659D02*
X58041D01*
X53100Y415600*
Y448100*
X58100Y453100*
X70600*
X65600Y420541D02*
Y433100D01*
X68100Y180600D02*
Y191100D01*
Y180600D02*
Y178300D01*
X73100Y173300*
X79400*
X68100Y191100D02*
X77100D01*
X70600Y118100D02*
Y126700D01*
X77500Y133600*
X70600Y118100D02*
X51700D01*
X39700Y130100*
X70600Y164700D02*
Y150600D01*
X78100Y143100*
X70600Y164700D02*
X79400D01*
X70600Y463100D02*
Y453100D01*
X77100Y191100D02*
Y234600D01*
X90600Y248100*
X77500Y133600D02*
X85600D01*
X77500D02*
X72600D01*
X63100Y143100*
X78000Y302500D02*
X84700D01*
X85600Y301600*
X78100Y380600D02*
Y370734D01*
X85700Y283700D02*
X93100D01*
Y302300D02*
Y283700D01*
Y302300D02*
X86300D01*
X85600Y301600*
X100600Y302300D02*
X93100D01*
X100600D02*
X119800D01*
X120600Y303100*
X100600Y420541D02*
Y433100D01*
X108200Y276200D02*
X95600D01*
X93700Y278100*
Y283100*
X93100Y283700*
X111700Y369334D02*
Y380600D01*
X120600Y310600D02*
Y311958D01*
Y313100*
X85600*
X38100Y360600*
Y386899*
X61860Y410659*
X123100Y133600D02*
Y125600D01*
X130600Y118100*
X123100Y143100D02*
Y133600D01*
X125600Y253100D02*
Y240600D01*
X131206Y234994*
X125600Y265600D02*
Y253100D01*
X130600D02*
Y275600D01*
X133100Y143100D02*
Y155600D01*
Y143100D02*
Y128100D01*
X135600Y125600*
X133100Y420541D02*
Y433100D01*
X135334Y290570D02*
X135069Y290305D01*
X135600Y108100D02*
X70600Y43100D01*
Y18100*
X135600Y248100D02*
X139025Y244675D01*
X135600Y265600D02*
X138927Y268927D01*
X135836Y290069D02*
X135334Y290570D01*
X138100Y308100D02*
Y305600D01*
X139773Y293100D02*
X142273Y295600D01*
X155836*
X158100Y293336*
Y290600*
X165364*
X148000Y180000D02*
X150600Y182600D01*
X149261Y251939D02*
X148100Y253100D01*
X150600Y380466D02*
X150466Y380600D01*
X155600Y303100D02*
X168100D01*
Y302116*
X156200Y178000D02*
X154100D01*
X152100Y180000*
X148000*
X165100Y168000D02*
X165000D01*
Y157500*
X163100Y155600*
X133100*
X165600Y308100D02*
X138100D01*
X168100Y298179D02*
Y302116D01*
X170600Y200600D02*
X173100Y198100D01*
Y185500*
X165100Y177500*
Y168000*
X180600Y463100D02*
Y453100D01*
X182490Y296210D02*
X183100Y295600D01*
X185500Y276100D02*
X177600D01*
X170600Y283100*
X185500Y276100D02*
X193000D01*
X185500Y280000D02*
X193000D01*
X185500D02*
Y285600D01*
X189500Y399500D02*
X190600Y400600D01*
Y435600D02*
Y440600D01*
X180600Y450600*
Y453100*
X190600Y463100D02*
Y453100D01*
X193000Y301100D02*
Y300500D01*
X188100Y295600*
X183100*
X193000Y301100D02*
X200500D01*
X194537Y356131D02*
Y350600D01*
X182037Y338100*
Y321801*
X196600Y250600D02*
X206200D01*
X216200Y260600*
X200500Y301100D02*
X206100D01*
X208100Y303100*
Y305600*
X200600Y18100D02*
X130600Y88100D01*
X208100Y305600D02*
Y378100D01*
X228100Y398100*
Y410600*
X208100Y305600D02*
X241860D01*
X244360Y303100*
Y290600*
X210600Y464500D02*
Y395600D01*
X203100Y388100*
Y328100*
X188100Y313100*
X212100Y273100D02*
Y269600D01*
X216200Y265500*
X212100Y273100D02*
Y282100D01*
X212600Y282600*
X212100Y273100D02*
X196000D01*
X193000Y276100*
X216200Y260600D02*
Y260000D01*
X218100Y258100*
X253100*
X216200Y265500D02*
Y260600D01*
X216340Y292836D02*
Y297360D01*
X215600Y298100*
X208100*
X198100Y288100*
X190600*
X188100Y290600*
X180600*
X216340Y292836D02*
X220080D01*
X218200Y136200D02*
X230700D01*
X220080Y292836D02*
X222836D01*
X228100Y298100*
X221700Y450600D02*
X221700Y443100D01*
Y435600D02*
X215600D01*
X215600Y435600*
X221700Y443100D02*
Y435600D01*
Y458100D02*
Y460600D01*
X219200Y463100*
Y468100*
X221700Y470600*
X227300*
X230600Y467300*
Y460600*
X232500Y458700*
X235600*
X221700Y458100D02*
X221700Y450600D01*
X225600D02*
X225600Y443100D01*
Y429100D02*
Y435600D01*
Y443100D02*
Y435600D01*
Y458100D02*
Y464500D01*
Y458100D02*
X225600Y450600D01*
X228100Y410600D02*
X235700D01*
X228100Y414500D02*
X235700D01*
X229100Y234300D02*
Y217900D01*
Y234300D02*
Y243100D01*
X230700Y136200D02*
X242200D01*
X251600Y145600*
Y197900*
X235600Y458700D02*
X243100D01*
X235600Y462600D02*
X243100D01*
X235700Y414500D02*
Y425600D01*
X239200Y429100*
X253100*
X241600Y356700D02*
Y401600D01*
X255100Y415100*
X244360Y275458D02*
Y266840D01*
X253100Y258100*
X244360Y285742D02*
Y290600D01*
Y291360*
X245620Y290100*
X268200*
X248100Y422100D02*
X255100Y415100D01*
X248100Y422100D02*
X240600D01*
X248100Y429100D02*
X253100D01*
X251600Y214300D02*
Y197900D01*
X253100Y258100D02*
Y263100D01*
X268100Y278100*
Y282100*
X253100Y258100D02*
Y215800D01*
X251600Y214300*
X253100Y429100D02*
X262718D01*
X264360Y430742*
X253100Y429100D02*
X225600D01*
X255100Y415100D02*
X262200Y408000D01*
X268700*
X255600Y420458D02*
X264360D01*
X255600Y435600D02*
Y460600D01*
X253600Y462600*
X243100*
X256860Y325742D02*
Y324340D01*
X260600Y320600*
X264340*
Y315458*
X260600Y303800D02*
X257500Y300700D01*
X260600Y315458D02*
Y303800D01*
X264340Y315458D02*
Y306860D01*
X265600Y305600*
X267600*
X270100Y303100*
Y300500*
X264360Y430742D02*
Y440580D01*
X264340Y440600*
Y443200*
X266200Y300500D02*
X263900D01*
X260600Y303800*
X268100Y282100D02*
Y286100D01*
X268200Y286200*
X268100Y420458D02*
Y408600D01*
X268700Y408000*
X268100Y420458D02*
Y443060D01*
X268240Y443200*
X268200Y286200D02*
X261700D01*
X260500Y285000*
X271840Y420458D02*
Y415600D01*
X272600Y414840*
Y413100*
X273100*
X272600Y408000D02*
Y376100D01*
X275600Y373100*
Y335600*
X273100Y333100*
X260600*
X256860Y329360*
Y325742*
X272600Y408000D02*
Y412600D01*
X273100Y413100*
X275600Y282100D02*
X268100D01*
X275600D02*
X280600D01*
Y293100*
X278100Y295600*
X268200*
X266200Y297600*
Y300500*
X275600Y289100D02*
X271600D01*
X270600Y290100*
X268200*
D02*
D12*
X48100Y380600D03*
X55600Y358234D03*
Y375734D03*
X60600Y350734D03*
Y373234D03*
Y398100D03*
Y428100D03*
X63100Y143100D03*
X65600Y358234D03*
Y368234D03*
Y433100D03*
X68100Y180600D03*
X70600Y398100D03*
Y428100D03*
X78100Y143100D03*
Y290600D03*
Y380600D03*
X83100Y428100D03*
X85600Y133600D03*
Y225600D03*
X90600Y235600D03*
Y248100D03*
Y355734D03*
Y373234D03*
X95600Y214085D03*
Y268100D03*
Y358234D03*
Y370734D03*
Y400600D03*
Y428100D03*
Y438100D03*
X100600Y218100D03*
Y360734D03*
Y368234D03*
Y433100D03*
X105600Y188100D03*
Y400600D03*
Y428100D03*
X108100Y298100D03*
X111700Y380600D03*
X115600Y214085D03*
Y428100D03*
X120600Y288100D03*
Y303100D03*
Y438100D03*
X123100Y133600D03*
Y235600D03*
Y371834D03*
X125600Y253100D03*
Y265600D03*
Y428100D03*
X128100Y400600D03*
X129200Y369334D03*
X130600Y88100D03*
X133100Y155600D03*
Y188100D03*
Y198100D03*
Y353234D03*
Y433100D03*
X134500Y368100D03*
X135334Y290570D03*
X135600Y215600D03*
Y248100D03*
Y265600D03*
Y273100D03*
X138100Y193100D03*
Y313100D03*
Y355734D03*
Y400600D03*
Y428100D03*
X143100Y265600D03*
Y358234D03*
Y438100D03*
X145600Y193100D03*
X148100Y223100D03*
Y253100D03*
X150466Y380600D03*
X151584Y290600D03*
X155600Y183100D03*
Y265600D03*
Y303100D03*
Y348234D03*
X158100Y173100D03*
Y260600D03*
X160600Y188100D03*
X163100Y215600D03*
Y225600D03*
Y248100D03*
Y298100D03*
Y313100D03*
Y358234D03*
Y373234D03*
Y430600D03*
X164360Y398100D03*
X165600Y193100D03*
X168100Y363234D03*
Y370734D03*
Y435600D03*
X170600Y253100D03*
Y283100D03*
X171840Y398100D03*
X173100Y348234D03*
Y430600D03*
X175600Y228100D03*
X178100Y188100D03*
Y260600D03*
X183100Y295600D03*
Y308100D03*
Y348100D03*
Y373100D03*
X185500Y285600D03*
X185600Y403100D03*
Y430600D03*
X188100Y168000D03*
X190600Y400600D03*
Y435600D03*
X194537Y373100D03*
X198100Y440600D03*
X200600Y163100D03*
Y198100D03*
Y393100D03*
X210600Y215600D03*
Y464500D03*
X215600Y393100D03*
Y435600D03*
X220600Y193100D03*
X225600Y422100D03*
Y464500D03*
X228100Y298100D03*
X229100Y243100D03*
X240600Y422100D03*
X255600Y420458D03*
Y435600D03*
X258100Y170600D03*
X273100Y413100D03*
D02*
D13*
X135836Y280659D03*
Y325541D03*
X137805Y280659D03*
Y325541D03*
X139773Y280659D03*
Y325541D03*
X141742Y280659D03*
Y325541D03*
X143710Y280659D03*
Y325541D03*
X145679Y280659D03*
Y325541D03*
X147647Y280659D03*
Y325541D03*
X149616Y280659D03*
Y325541D03*
X151584Y280659D03*
Y325541D03*
X153553Y280659D03*
Y325541D03*
X155521Y280659D03*
Y325541D03*
X157490Y280659D03*
Y325541D03*
X159458Y280659D03*
Y325541D03*
X161427Y280659D03*
Y325541D03*
X163395Y280659D03*
Y325541D03*
X165364Y280659D03*
Y325541D03*
D02*
D14*
X128159Y288336D03*
Y290305D03*
Y292273D03*
Y294242D03*
Y296210D03*
Y298179D03*
Y300147D03*
Y302116D03*
Y304084D03*
Y306053D03*
Y308021D03*
Y309990D03*
Y311958D03*
Y313927D03*
Y315895D03*
Y317864D03*
X173041Y288336D03*
Y290305D03*
Y292273D03*
Y294242D03*
Y296210D03*
Y298179D03*
Y300147D03*
Y302116D03*
Y304084D03*
Y306053D03*
Y308021D03*
Y309990D03*
Y311958D03*
Y313927D03*
Y315895D03*
Y317864D03*
D02*
D15*
X78000Y298600D03*
Y302500D03*
X85700Y283700D03*
Y287600D03*
X108200Y276200D03*
Y280100D03*
X148000Y176100D03*
Y180000D03*
X185500Y276100D03*
Y280000D03*
X188000Y328600D03*
Y332500D03*
X193000Y276100D03*
Y280000D03*
Y301100D03*
Y305000D03*
X195700Y328700D03*
Y332600D03*
X200500Y301100D03*
Y305000D03*
X218200Y136200D03*
Y140100D03*
X228100Y410600D03*
Y414500D03*
X230700Y136200D03*
Y140100D03*
X235600Y458700D03*
Y462600D03*
X235700Y410600D03*
Y414500D03*
X243100Y458700D03*
Y462600D03*
X260500Y281100D03*
Y285000D03*
X268200Y286200D03*
Y290100D03*
D02*
D16*
X244360Y275458D03*
Y285742D03*
X248100Y275458D03*
X251840D03*
Y285742D03*
X256860Y315458D03*
Y325742D03*
X260600Y315458D03*
X264340D03*
Y325742D03*
X264360Y420458D03*
Y430742D03*
X268100Y420458D03*
X271840D03*
Y430742D03*
D02*
D17*
X156200Y178000D03*
X160100D03*
X161200Y168000D03*
X165100D03*
X216200Y265500D03*
X220100D03*
X221700Y450600D03*
X221700Y435600D03*
Y443100D03*
Y458100D03*
X225600Y450600D03*
X225600Y435600D03*
Y443100D03*
Y458100D03*
X253600Y300700D03*
X257500D03*
X264340Y443200D03*
X266200Y300500D03*
X268240Y443200D03*
X268700Y408000D03*
X270100Y300500D03*
X272600Y408000D03*
D02*
D18*
X85600Y294600D03*
Y301600D03*
X233100Y282100D03*
Y289100D03*
X275600Y282100D03*
Y289100D03*
D02*
D19*
X13100Y146400D03*
Y159800D03*
X100600Y288900D03*
Y302300D03*
D02*
D70*
X212600Y282600D03*
Y292836D03*
X216340Y282600D03*
Y292836D03*
X220080Y282600D03*
Y292836D03*
D02*
D71*
X189600Y250600D03*
X196600D03*
X212100Y273100D03*
X219100D03*
D02*
D20*
X248100Y422100D03*
Y429100D03*
D02*
D21*
X229100Y217900D03*
Y234300D03*
X237600Y217900D03*
Y234300D03*
X251600Y197900D03*
Y214300D03*
X260100Y197900D03*
Y214300D03*
D02*
D22*
X60600Y384750D03*
Y391250D03*
X63800Y384750D03*
Y391250D03*
X67000Y384750D03*
Y391250D03*
X70200Y384750D03*
Y391250D03*
X95600Y387250D03*
Y393750D03*
X98800Y387250D03*
Y393750D03*
X102000Y387250D03*
Y393750D03*
X105200Y387250D03*
Y393750D03*
X128100Y387250D03*
Y393750D03*
X131300Y387250D03*
Y393750D03*
X134500Y387250D03*
Y393750D03*
X137700Y387250D03*
Y393750D03*
X163100Y382384D03*
Y388884D03*
X166300Y382384D03*
Y388884D03*
X169500Y382384D03*
Y388884D03*
X172700Y382384D03*
Y388884D03*
X183100Y387250D03*
Y393750D03*
X186300Y387250D03*
Y393750D03*
X189500Y387250D03*
Y393750D03*
X192700Y387250D03*
Y393750D03*
D02*
D23*
X43100Y364829D03*
Y366797D03*
Y368766D03*
Y370734D03*
X48218Y364829D03*
Y366797D03*
Y368766D03*
Y370734D03*
X78100Y364829D03*
Y366797D03*
Y368766D03*
Y370734D03*
X83218Y364829D03*
Y366797D03*
Y368766D03*
Y370734D03*
X111700Y363429D03*
Y365397D03*
Y367366D03*
Y369334D03*
X116818Y363429D03*
Y365397D03*
Y367366D03*
Y369334D03*
X150600Y364829D03*
Y366797D03*
Y368766D03*
Y370734D03*
X155718Y364829D03*
Y366797D03*
Y368766D03*
Y370734D03*
D02*
D24*
X188631Y360482D03*
Y365600D03*
X190600Y360482D03*
Y365600D03*
X192569Y360482D03*
Y365600D03*
X194537Y360482D03*
Y365600D03*
D02*
D25*
X215600Y407000D03*
Y415600D03*
X218100Y407000D03*
X218159Y415600D03*
X220600Y407000D03*
X220718Y415600D03*
D02*
D26*
X263600Y339500D03*
Y366000D03*
D02*
D27*
X241600Y348800D03*
Y356700D03*
D02*
D28*
X70600Y18100D03*
Y118100D03*
Y453100D03*
Y463100D03*
X80600Y18100D03*
Y118100D03*
Y453100D03*
Y463100D03*
X90600Y18100D03*
Y118100D03*
Y453100D03*
Y463100D03*
X100600Y18100D03*
Y118100D03*
Y453100D03*
Y463100D03*
X110600Y18100D03*
Y118100D03*
Y453100D03*
Y463100D03*
X120600Y18100D03*
Y118100D03*
Y453100D03*
Y463100D03*
X123100Y143100D03*
X130600Y18100D03*
Y118100D03*
Y453100D03*
Y463100D03*
X133100Y143100D03*
X140600Y18100D03*
Y118100D03*
Y453100D03*
Y463100D03*
X143100Y143100D03*
X150600Y18100D03*
Y118100D03*
Y453100D03*
Y463100D03*
X153100Y143100D03*
X160600Y18100D03*
Y118100D03*
Y453100D03*
Y463100D03*
X170600Y18100D03*
Y118100D03*
Y453100D03*
Y463100D03*
X180600Y18100D03*
Y118100D03*
Y453100D03*
Y463100D03*
X190600Y18100D03*
Y118100D03*
Y453100D03*
Y463100D03*
X200600Y18100D03*
Y118100D03*
Y178100D03*
X210600Y18100D03*
Y118100D03*
Y178100D03*
X220600Y18100D03*
Y118100D03*
Y178100D03*
X230600Y18100D03*
Y118100D03*
Y178100D03*
X240600Y18100D03*
Y118100D03*
X250600Y18100D03*
Y118100D03*
D02*
D29*
X129600Y178100D03*
X136600D03*
X234600Y328100D03*
X241600D03*
D02*
D72*
X136466Y206206D03*
Y234994D03*
X139025Y206206D03*
Y234994D03*
X141585Y206206D03*
Y234994D03*
X144143Y206206D03*
Y234994D03*
X146702Y206206D03*
Y234994D03*
X149261Y206206D03*
Y234994D03*
X151820Y206206D03*
Y234994D03*
X154380Y206206D03*
Y234994D03*
X156939Y206206D03*
Y234994D03*
X159498Y206206D03*
Y234994D03*
X162057Y206206D03*
Y234994D03*
X164615Y206206D03*
Y234994D03*
X167175Y206206D03*
Y234994D03*
X169734Y206206D03*
Y234994D03*
D02*
D73*
X193100Y148100D03*
Y157500D03*
X210400Y148100D03*
Y157500D03*
D02*
D74*
X79400Y151800D03*
Y156100D03*
Y160400D03*
Y164700D03*
Y169000D03*
Y173300D03*
Y177600D03*
Y181900D03*
Y186200D03*
D02*
D75*
X38100Y148600D03*
Y180100D03*
D02*
D76*
X39700Y130100D03*
Y191100D03*
D02*
D77*
X77500Y133600D03*
D02*
D78*
X77100Y191100D03*
D02*
D79*
X61860Y410659D03*
Y420541D03*
X65600Y410659D03*
Y420541D03*
X69340Y410659D03*
Y420541D03*
X96860Y410659D03*
Y420541D03*
X100600Y410659D03*
Y420541D03*
X104340Y410659D03*
Y420541D03*
X129360Y410659D03*
Y420541D03*
X133100Y410659D03*
Y420541D03*
X136840Y410659D03*
Y420541D03*
X164360Y413159D03*
Y423041D03*
X168100Y413159D03*
Y423041D03*
X171840Y413159D03*
Y423041D03*
X186860Y413159D03*
Y423041D03*
X190600Y413159D03*
Y423041D03*
X194340Y413159D03*
Y423041D03*
X0Y0D02*
M02*
