G05
M48
INCH,TZ
FMAT,2
T1C000.02400
T2C000.03500
T3C000.18500
%
T001
X0.48100Y3.80600
X0.55600Y3.58234
X0.55600Y3.75734
X0.60600Y3.50734
X0.60600Y3.73234
X0.60600Y3.98100
X0.60600Y4.28100
X0.63100Y1.43100
X0.65600Y3.58234
X0.65600Y3.68234
X0.65600Y4.33100
X0.68100Y1.80600
X0.70600Y3.98100
X0.70600Y4.28100
X0.78100Y1.43100
X0.78100Y2.90600
X0.78100Y3.80600
X0.83100Y4.28100
X0.85600Y1.33600
X0.85600Y2.25600
X0.90600Y2.35600
X0.90600Y2.48100
X0.90600Y3.55734
X0.90600Y3.73234
X0.95600Y2.14085
X0.95600Y2.68100
X0.95600Y3.58234
X0.95600Y3.70734
X0.95600Y4.00600
X0.95600Y4.28100
X0.95600Y4.38100
X1.00600Y2.18100
X1.00600Y3.60734
X1.00600Y3.68234
X1.00600Y4.33100
X1.05600Y1.88100
X1.05600Y4.00600
X1.05600Y4.28100
X1.08100Y2.98100
X1.11700Y3.80600
X1.15600Y2.14085
X1.15600Y4.28100
X1.20600Y2.88100
X1.20600Y3.03100
X1.20600Y4.38100
X1.23100Y1.33600
X1.23100Y2.35600
X1.23100Y3.71834
X1.25600Y2.53100
X1.25600Y2.65600
X1.25600Y4.28100
X1.28100Y4.00600
X1.29200Y3.69334
X1.30600Y0.88100
X1.33100Y1.55600
X1.33100Y1.88100
X1.33100Y1.98100
X1.33100Y3.53234
X1.33100Y4.33100
X1.34500Y3.68100
X1.35334Y2.90570
X1.35600Y2.15600
X1.35600Y2.48100
X1.35600Y2.65600
X1.35600Y2.73100
X1.38100Y1.93100
X1.38100Y3.13100
X1.38100Y3.55734
X1.38100Y4.00600
X1.38100Y4.28100
X1.43100Y2.65600
X1.43100Y3.58234
X1.43100Y4.38100
X1.45600Y1.93100
X1.48100Y2.23100
X1.48100Y2.53100
X1.50466Y3.80600
X1.51584Y2.90600
X1.55600Y1.83100
X1.55600Y2.65600
X1.55600Y3.03100
X1.55600Y3.48234
X1.58100Y1.73100
X1.58100Y2.60600
X1.60600Y1.88100
X1.63100Y2.15600
X1.63100Y2.25600
X1.63100Y2.48100
X1.63100Y2.98100
X1.63100Y3.13100
X1.63100Y3.58234
X1.63100Y3.73234
X1.63100Y4.30600
X1.64360Y3.98100
X1.65600Y1.93100
X1.68100Y3.63234
X1.68100Y3.70734
X1.68100Y4.35600
X1.70600Y2.53100
X1.70600Y2.83100
X1.71840Y3.98100
X1.73100Y3.48234
X1.73100Y4.30600
X1.75600Y2.28100
X1.78100Y1.88100
X1.78100Y2.60600
X1.83100Y2.95600
X1.83100Y3.08100
X1.83100Y3.48100
X1.83100Y3.73100
X1.85500Y2.85600
X1.85600Y4.03100
X1.85600Y4.30600
X1.88100Y1.68000
X1.90600Y4.00600
X1.90600Y4.35600
X1.94537Y3.73100
X1.98100Y4.40600
X2.00600Y1.63100
X2.00600Y1.98100
X2.00600Y3.93100
X2.10600Y2.15600
X2.10600Y4.64500
X2.15600Y3.93100
X2.15600Y4.35600
X2.20600Y1.93100
X2.25600Y4.22100
X2.25600Y4.64500
X2.28100Y2.98100
X2.29100Y2.43100
X2.40600Y4.22100
X2.55600Y4.20458
X2.55600Y4.35600
X2.58100Y1.70600
X2.73100Y4.13100
T002
X0.70600Y0.18100
X0.70600Y1.18100
X0.70600Y4.53100
X0.70600Y4.63100
X0.80600Y0.18100
X0.80600Y1.18100
X0.80600Y4.53100
X0.80600Y4.63100
X0.90600Y0.18100
X0.90600Y1.18100
X0.90600Y4.53100
X0.90600Y4.63100
X1.00600Y0.18100
X1.00600Y1.18100
X1.00600Y4.53100
X1.00600Y4.63100
X1.10600Y0.18100
X1.10600Y1.18100
X1.10600Y4.53100
X1.10600Y4.63100
X1.20600Y0.18100
X1.20600Y1.18100
X1.20600Y4.53100
X1.20600Y4.63100
X1.23100Y1.43100
X1.30600Y0.18100
X1.30600Y1.18100
X1.30600Y4.53100
X1.30600Y4.63100
X1.33100Y1.43100
X1.40600Y0.18100
X1.40600Y1.18100
X1.40600Y4.53100
X1.40600Y4.63100
X1.43100Y1.43100
X1.50600Y0.18100
X1.50600Y1.18100
X1.50600Y4.53100
X1.50600Y4.63100
X1.53100Y1.43100
X1.60600Y0.18100
X1.60600Y1.18100
X1.60600Y4.53100
X1.60600Y4.63100
X1.70600Y0.18100
X1.70600Y1.18100
X1.70600Y4.53100
X1.70600Y4.63100
X1.80600Y0.18100
X1.80600Y1.18100
X1.80600Y4.53100
X1.80600Y4.63100
X1.90600Y0.18100
X1.90600Y1.18100
X1.90600Y4.53100
X1.90600Y4.63100
X2.00600Y0.18100
X2.00600Y1.18100
X2.00600Y1.78100
X2.10600Y0.18100
X2.10600Y1.18100
X2.10600Y1.78100
X2.20600Y0.18100
X2.20600Y1.18100
X2.20600Y1.78100
X2.30600Y0.18100
X2.30600Y1.18100
X2.30600Y1.78100
X2.40600Y0.18100
X2.40600Y1.18100
X2.50600Y0.18100
X2.50600Y1.18100
T003
X0.15600Y0.15600
X0.15600Y4.63100
X2.73100Y0.15600
X2.73100Y4.63100
M30
