G04 DesignSpark PCB Gerber Version 9.0 Build 5138 *
%FSLAX35Y35*%
%MOIN*%
%ADD123R,0.00400X0.02156*%
%ADD110R,0.00581X0.04124*%
%ADD121R,0.01000X0.02900*%
%ADD128R,0.01100X0.06600*%
%ADD124R,0.01200X0.04000*%
%ADD117R,0.01565X0.04124*%
%ADD134R,0.01683X0.04164*%
%ADD113R,0.01762X0.04124*%
%ADD112R,0.01800X0.01800*%
%ADD120R,0.02000X0.03600*%
%ADD119R,0.03337X0.03691*%
%ADD118R,0.03340X0.03730*%
%ADD132R,0.04900X0.05700*%
%ADD116R,0.05700X0.05700*%
%ADD122R,0.02156X0.00400*%
%ADD111R,0.04124X0.00581*%
%ADD114R,0.01800X0.01800*%
%ADD130R,0.05700X0.02100*%
%ADD126R,0.13200X0.03300*%
%ADD127R,0.03691X0.03337*%
%ADD115R,0.03730X0.03340*%
%ADD133R,0.05700X0.04100*%
%ADD131R,0.08100X0.04100*%
%ADD129R,0.06500X0.04900*%
%ADD125R,0.12800X0.05300*%
X0Y0D02*
D02*
D110*
X135836Y280659D03*
Y325541D03*
X137805Y280659D03*
Y325541D03*
X139773Y280659D03*
Y325541D03*
X141742Y280659D03*
Y325541D03*
X143710Y280659D03*
Y325541D03*
X145679Y280659D03*
Y325541D03*
X147647Y280659D03*
Y325541D03*
X149616Y280659D03*
Y325541D03*
X151584Y280659D03*
Y325541D03*
X153553Y280659D03*
Y325541D03*
X155521Y280659D03*
Y325541D03*
X157490Y280659D03*
Y325541D03*
X159458Y280659D03*
Y325541D03*
X161427Y280659D03*
Y325541D03*
X163395Y280659D03*
Y325541D03*
X165364Y280659D03*
Y325541D03*
D02*
D111*
X128159Y288336D03*
Y290305D03*
Y292273D03*
Y294242D03*
Y296210D03*
Y298179D03*
Y300147D03*
Y302116D03*
Y304084D03*
Y306053D03*
Y308021D03*
Y309990D03*
Y311958D03*
Y313927D03*
Y315895D03*
Y317864D03*
X173041Y288336D03*
Y290305D03*
Y292273D03*
Y294242D03*
Y296210D03*
Y298179D03*
Y300147D03*
Y302116D03*
Y304084D03*
Y306053D03*
Y308021D03*
Y309990D03*
Y311958D03*
Y313927D03*
Y315895D03*
Y317864D03*
D02*
D112*
X78000Y298600D03*
Y302500D03*
X85700Y283700D03*
Y287600D03*
X108200Y276200D03*
Y280100D03*
X148000Y176100D03*
Y180000D03*
X185500Y276100D03*
Y280000D03*
X188000Y328600D03*
Y332500D03*
X193000Y276100D03*
Y280000D03*
Y301100D03*
Y305000D03*
X195700Y328700D03*
Y332600D03*
X200500Y301100D03*
Y305000D03*
X218200Y136200D03*
Y140100D03*
X228100Y410600D03*
Y414500D03*
X230700Y136200D03*
Y140100D03*
X235600Y458700D03*
Y462600D03*
X235700Y410600D03*
Y414500D03*
X243100Y458700D03*
Y462600D03*
X260500Y281100D03*
Y285000D03*
X268200Y286200D03*
Y290100D03*
D02*
D113*
X244360Y275458D03*
Y285742D03*
X248100Y275458D03*
X251840D03*
Y285742D03*
X256860Y315458D03*
Y325742D03*
X260600Y315458D03*
X264340D03*
Y325742D03*
X264360Y420458D03*
Y430742D03*
X268100Y420458D03*
X271840D03*
Y430742D03*
D02*
D114*
X156200Y178000D03*
X160100D03*
X161200Y168000D03*
X165100D03*
X216200Y265500D03*
X220100D03*
X221700Y450600D03*
X221700Y435600D03*
Y443100D03*
Y458100D03*
X225600Y450600D03*
X225600Y435600D03*
Y443100D03*
Y458100D03*
X253600Y300700D03*
X257500D03*
X264340Y443200D03*
X266200Y300500D03*
X268240Y443200D03*
X268700Y408000D03*
X270100Y300500D03*
X272600Y408000D03*
D02*
D115*
X85600Y294600D03*
Y301600D03*
X233100Y282100D03*
Y289100D03*
X275600Y282100D03*
Y289100D03*
D02*
D116*
X13100Y146400D03*
Y159800D03*
X100600Y288900D03*
Y302300D03*
D02*
D117*
X212600Y282600D03*
Y292836D03*
X216340Y282600D03*
Y292836D03*
X220080Y282600D03*
Y292836D03*
D02*
D118*
X189600Y250600D03*
X196600D03*
X212100Y273100D03*
X219100D03*
D02*
D119*
X248100Y422100D03*
Y429100D03*
D02*
D120*
X229100Y217900D03*
Y234300D03*
X237600Y217900D03*
Y234300D03*
X251600Y197900D03*
Y214300D03*
X260100Y197900D03*
Y214300D03*
D02*
D121*
X60600Y384750D03*
Y391250D03*
X63800Y384750D03*
Y391250D03*
X67000Y384750D03*
Y391250D03*
X70200Y384750D03*
Y391250D03*
X95600Y387250D03*
Y393750D03*
X98800Y387250D03*
Y393750D03*
X102000Y387250D03*
Y393750D03*
X105200Y387250D03*
Y393750D03*
X128100Y387250D03*
Y393750D03*
X131300Y387250D03*
Y393750D03*
X134500Y387250D03*
Y393750D03*
X137700Y387250D03*
Y393750D03*
X163100Y382384D03*
Y388884D03*
X166300Y382384D03*
Y388884D03*
X169500Y382384D03*
Y388884D03*
X172700Y382384D03*
Y388884D03*
X183100Y387250D03*
Y393750D03*
X186300Y387250D03*
Y393750D03*
X189500Y387250D03*
Y393750D03*
X192700Y387250D03*
Y393750D03*
D02*
D122*
X43100Y364829D03*
Y366797D03*
Y368766D03*
Y370734D03*
X48218Y364829D03*
Y366797D03*
Y368766D03*
Y370734D03*
X78100Y364829D03*
Y366797D03*
Y368766D03*
Y370734D03*
X83218Y364829D03*
Y366797D03*
Y368766D03*
Y370734D03*
X111700Y363429D03*
Y365397D03*
Y367366D03*
Y369334D03*
X116818Y363429D03*
Y365397D03*
Y367366D03*
Y369334D03*
X150600Y364829D03*
Y366797D03*
Y368766D03*
Y370734D03*
X155718Y364829D03*
Y366797D03*
Y368766D03*
Y370734D03*
D02*
D123*
X188631Y360482D03*
Y365600D03*
X190600Y360482D03*
Y365600D03*
X192569Y360482D03*
Y365600D03*
X194537Y360482D03*
Y365600D03*
D02*
D124*
X215600Y407000D03*
Y415600D03*
X218100Y407000D03*
X218159Y415600D03*
X220600Y407000D03*
X220718Y415600D03*
D02*
D125*
X263600Y339500D03*
Y366000D03*
D02*
D126*
X241600Y348800D03*
Y356700D03*
D02*
D127*
X129600Y178100D03*
X136600D03*
X234600Y328100D03*
X241600D03*
D02*
D128*
X136466Y206206D03*
Y234994D03*
X139025Y206206D03*
Y234994D03*
X141585Y206206D03*
Y234994D03*
X144143Y206206D03*
Y234994D03*
X146702Y206206D03*
Y234994D03*
X149261Y206206D03*
Y234994D03*
X151820Y206206D03*
Y234994D03*
X154380Y206206D03*
Y234994D03*
X156939Y206206D03*
Y234994D03*
X159498Y206206D03*
Y234994D03*
X162057Y206206D03*
Y234994D03*
X164615Y206206D03*
Y234994D03*
X167175Y206206D03*
Y234994D03*
X169734Y206206D03*
Y234994D03*
D02*
D129*
X193100Y148100D03*
Y157500D03*
X210400Y148100D03*
Y157500D03*
D02*
D130*
X79400Y151800D03*
Y156100D03*
Y160400D03*
Y164700D03*
Y169000D03*
Y173300D03*
Y177600D03*
Y181900D03*
Y186200D03*
D02*
D131*
X39700Y130100D03*
Y191100D03*
D02*
D132*
X77500Y133600D03*
D02*
D133*
X77100Y191100D03*
D02*
D134*
X61860Y410659D03*
Y420541D03*
X65600Y410659D03*
Y420541D03*
X69340Y410659D03*
Y420541D03*
X96860Y410659D03*
Y420541D03*
X100600Y410659D03*
Y420541D03*
X104340Y410659D03*
Y420541D03*
X129360Y410659D03*
Y420541D03*
X133100Y410659D03*
Y420541D03*
X136840Y410659D03*
Y420541D03*
X164360Y413159D03*
Y423041D03*
X168100Y413159D03*
Y423041D03*
X171840Y413159D03*
Y423041D03*
X186860Y413159D03*
Y423041D03*
X190600Y413159D03*
Y423041D03*
X194340Y413159D03*
Y423041D03*
X0Y0D02*
M02*
