G04 DesignSpark PCB Gerber Version 9.0 Build 5138 *
%FSLAX35Y35*%
%MOIN*%
%ADD96R,0.01600X0.03356*%
%ADD82R,0.01781X0.05324*%
%ADD94R,0.02200X0.04100*%
%ADD102R,0.02300X0.07800*%
%ADD97R,0.02400X0.05200*%
%ADD89R,0.02765X0.05324*%
%ADD109R,0.02883X0.05364*%
%ADD85R,0.02962X0.05324*%
%ADD84R,0.03000X0.03000*%
%ADD92R,0.03200X0.04800*%
%ADD91R,0.04537X0.04891*%
%ADD90R,0.04540X0.04930*%
%ADD107R,0.06100X0.06900*%
%ADD100R,0.06600X0.06600*%
%ADD88R,0.06900X0.06900*%
%ADD93C,0.00500*%
%ADD95R,0.03356X0.01600*%
%ADD83R,0.05324X0.01781*%
%ADD86R,0.03000X0.03000*%
%ADD104R,0.06900X0.03300*%
%ADD99R,0.14400X0.04500*%
%ADD101R,0.04891X0.04537*%
%ADD87R,0.04930X0.04540*%
%ADD108R,0.06900X0.05300*%
%ADD106R,0.09300X0.05300*%
%ADD105C,0.04200*%
%ADD80C,0.04600*%
%ADD81C,0.13800*%
%ADD103R,0.07700X0.06100*%
%ADD98R,0.14000X0.06500*%
X0Y0D02*
D02*
D80*
X48100Y380600D03*
X55600Y358234D03*
Y375734D03*
X60600Y350734D03*
Y373234D03*
Y398100D03*
Y428100D03*
X63100Y143100D03*
X65600Y358234D03*
Y368234D03*
Y433100D03*
X68100Y180600D03*
X70600Y398100D03*
Y428100D03*
X78100Y143100D03*
Y290600D03*
Y380600D03*
X83100Y428100D03*
X85600Y133600D03*
Y225600D03*
X90600Y235600D03*
Y248100D03*
Y355734D03*
Y373234D03*
X95600Y214085D03*
Y268100D03*
Y358234D03*
Y370734D03*
Y400600D03*
Y428100D03*
Y438100D03*
X100600Y218100D03*
Y360734D03*
Y368234D03*
Y433100D03*
X105600Y188100D03*
Y400600D03*
Y428100D03*
X108100Y298100D03*
X111700Y380600D03*
X115600Y214085D03*
Y428100D03*
X120600Y288100D03*
Y303100D03*
Y438100D03*
X123100Y133600D03*
Y235600D03*
Y371834D03*
X125600Y253100D03*
Y265600D03*
Y428100D03*
X128100Y400600D03*
X129200Y369334D03*
X130600Y88100D03*
X133100Y155600D03*
Y188100D03*
Y198100D03*
Y353234D03*
Y433100D03*
X134500Y368100D03*
X135334Y290570D03*
X135600Y215600D03*
Y248100D03*
Y265600D03*
Y273100D03*
X138100Y193100D03*
Y313100D03*
Y355734D03*
Y400600D03*
Y428100D03*
X143100Y265600D03*
Y358234D03*
Y438100D03*
X145600Y193100D03*
X148100Y223100D03*
Y253100D03*
X150466Y380600D03*
X151584Y290600D03*
X155600Y183100D03*
Y265600D03*
Y303100D03*
Y348234D03*
X158100Y173100D03*
Y260600D03*
X160600Y188100D03*
X163100Y215600D03*
Y225600D03*
Y248100D03*
Y298100D03*
Y313100D03*
Y358234D03*
Y373234D03*
Y430600D03*
X164360Y398100D03*
X165600Y193100D03*
X168100Y363234D03*
Y370734D03*
Y435600D03*
X170600Y253100D03*
Y283100D03*
X171840Y398100D03*
X173100Y348234D03*
Y430600D03*
X175600Y228100D03*
X178100Y188100D03*
Y260600D03*
X183100Y295600D03*
Y308100D03*
Y348100D03*
Y373100D03*
X185500Y285600D03*
X185600Y403100D03*
Y430600D03*
X188100Y168000D03*
X190600Y400600D03*
Y435600D03*
X194537Y373100D03*
X198100Y440600D03*
X200600Y163100D03*
Y198100D03*
Y393100D03*
X210600Y215600D03*
Y464500D03*
X215600Y393100D03*
Y435600D03*
X220600Y193100D03*
X225600Y422100D03*
Y464500D03*
X228100Y298100D03*
X229100Y243100D03*
X240600Y422100D03*
X255600Y420458D03*
Y435600D03*
X258100Y170600D03*
X273100Y413100D03*
D02*
D81*
X15600Y15600D03*
Y463100D03*
X273100Y15600D03*
Y463100D03*
D02*
D82*
X135836Y280659D03*
Y325541D03*
X137805Y280659D03*
Y325541D03*
X139773Y280659D03*
Y325541D03*
X141742Y280659D03*
Y325541D03*
X143710Y280659D03*
Y325541D03*
X145679Y280659D03*
Y325541D03*
X147647Y280659D03*
Y325541D03*
X149616Y280659D03*
Y325541D03*
X151584Y280659D03*
Y325541D03*
X153553Y280659D03*
Y325541D03*
X155521Y280659D03*
Y325541D03*
X157490Y280659D03*
Y325541D03*
X159458Y280659D03*
Y325541D03*
X161427Y280659D03*
Y325541D03*
X163395Y280659D03*
Y325541D03*
X165364Y280659D03*
Y325541D03*
D02*
D83*
X128159Y288336D03*
Y290305D03*
Y292273D03*
Y294242D03*
Y296210D03*
Y298179D03*
Y300147D03*
Y302116D03*
Y304084D03*
Y306053D03*
Y308021D03*
Y309990D03*
Y311958D03*
Y313927D03*
Y315895D03*
Y317864D03*
X173041Y288336D03*
Y290305D03*
Y292273D03*
Y294242D03*
Y296210D03*
Y298179D03*
Y300147D03*
Y302116D03*
Y304084D03*
Y306053D03*
Y308021D03*
Y309990D03*
Y311958D03*
Y313927D03*
Y315895D03*
Y317864D03*
D02*
D84*
X78000Y298600D03*
Y302500D03*
X85700Y283700D03*
Y287600D03*
X108200Y276200D03*
Y280100D03*
X148000Y176100D03*
Y180000D03*
X185500Y276100D03*
Y280000D03*
X188000Y328600D03*
Y332500D03*
X193000Y276100D03*
Y280000D03*
Y301100D03*
Y305000D03*
X195700Y328700D03*
Y332600D03*
X200500Y301100D03*
Y305000D03*
X218200Y136200D03*
Y140100D03*
X228100Y410600D03*
Y414500D03*
X230700Y136200D03*
Y140100D03*
X235600Y458700D03*
Y462600D03*
X235700Y410600D03*
Y414500D03*
X243100Y458700D03*
Y462600D03*
X260500Y281100D03*
Y285000D03*
X268200Y286200D03*
Y290100D03*
D02*
D85*
X244360Y275458D03*
Y285742D03*
X248100Y275458D03*
X251840D03*
Y285742D03*
X256860Y315458D03*
Y325742D03*
X260600Y315458D03*
X264340D03*
Y325742D03*
X264360Y420458D03*
Y430742D03*
X268100Y420458D03*
X271840D03*
Y430742D03*
D02*
D86*
X156200Y178000D03*
X160100D03*
X161200Y168000D03*
X165100D03*
X216200Y265500D03*
X220100D03*
X221700Y450600D03*
X221700Y435600D03*
Y443100D03*
Y458100D03*
X225600Y450600D03*
X225600Y435600D03*
Y443100D03*
Y458100D03*
X253600Y300700D03*
X257500D03*
X264340Y443200D03*
X266200Y300500D03*
X268240Y443200D03*
X268700Y408000D03*
X270100Y300500D03*
X272600Y408000D03*
D02*
D87*
X85600Y294600D03*
Y301600D03*
X233100Y282100D03*
Y289100D03*
X275600Y282100D03*
Y289100D03*
D02*
D88*
X13100Y146400D03*
Y159800D03*
X100600Y288900D03*
Y302300D03*
D02*
D89*
X212600Y282600D03*
Y292836D03*
X216340Y282600D03*
Y292836D03*
X220080Y282600D03*
Y292836D03*
D02*
D90*
X189600Y250600D03*
X196600D03*
X212100Y273100D03*
X219100D03*
D02*
D91*
X248100Y422100D03*
Y429100D03*
D02*
D92*
X229100Y217900D03*
Y234300D03*
X237600Y217900D03*
Y234300D03*
X251600Y197900D03*
Y214300D03*
X260100Y197900D03*
Y214300D03*
D02*
D93*
X26225Y199663D02*
X25913Y199350D01*
X25287Y199037*
X24350*
X23725Y199350*
X23413Y199663*
X23100Y200287*
Y201537*
X23413Y202163*
X23725Y202475*
X24350Y202787*
X25287*
X25913Y202475*
X26225Y202163*
X28100Y200287D02*
Y201537D01*
X28413Y202163*
X28725Y202475*
X29350Y202787*
X29975*
X30600Y202475*
X30913Y202163*
X31225Y201537*
Y200287*
X30913Y199663*
X30600Y199350*
X29975Y199037*
X29350*
X28725Y199350*
X28413Y199663*
X28100Y200287*
X33100Y199037D02*
Y202787D01*
X36225Y199037*
Y202787*
X38100Y199037D02*
Y202787D01*
X41225Y199037*
Y202787*
X43725Y199037D02*
X44975D01*
X44350D02*
Y202787D01*
X43725Y202163*
X46225Y357163D02*
X45913Y356850D01*
X45287Y356537*
X44350*
X43725Y356850*
X43413Y357163*
X43100Y357787*
Y359037*
X43413Y359663*
X43725Y359975*
X44350Y360287*
X45287*
X45913Y359975*
X46225Y359663*
X48413Y356850D02*
X49037Y356537D01*
X49663*
X50287Y356850*
X50600Y357475*
X50287Y358100*
X49663Y358413*
X49037*
X49663D02*
X50287Y358725D01*
X50600Y359350*
X50287Y359975*
X49663Y360287*
X49037*
X48413Y359975*
X81225Y357163D02*
X80913Y356850D01*
X80287Y356537*
X79350*
X78725Y356850*
X78413Y357163*
X78100Y357787*
Y359037*
X78413Y359663*
X78725Y359975*
X79350Y360287*
X80287*
X80913Y359975*
X81225Y359663*
X84037Y356537D02*
X84663Y356850D01*
X85287Y357475*
X85600Y358413*
Y359350*
X85287Y359975*
X84663Y360287*
X84037*
X83413Y359975*
X83100Y359350*
X83413Y358725*
X84037Y358413*
X84663*
X85287Y358725*
X85600Y359350*
X113725Y357163D02*
X113413Y356850D01*
X112787Y356537*
X111850*
X111225Y356850*
X110913Y357163*
X110600Y357787*
Y359037*
X110913Y359663*
X111225Y359975*
X111850Y360287*
X112787*
X113413Y359975*
X113725Y359663*
X116225Y356537D02*
X117475D01*
X116850D02*
Y360287D01*
X116225Y359663*
X121225Y356537D02*
X122475D01*
X121850D02*
Y360287D01*
X121225Y359663*
X138725Y372297D02*
X138413Y371984D01*
X137787Y371672*
X136850*
X136225Y371984*
X135913Y372297*
X135600Y372922*
Y374172*
X135913Y374797*
X136225Y375109*
X136850Y375422*
X137787*
X138413Y375109*
X138725Y374797*
X143100Y371672D02*
X140600D01*
X142787Y373859*
X143100Y374484*
X142787Y375109*
X142163Y375422*
X141225*
X140600Y375109*
X145600Y372609D02*
X145913Y373234D01*
X146537Y373547*
X147163*
X147787Y373234*
X148100Y372609*
X147787Y371984*
X147163Y371672*
X146537*
X145913Y371984*
X145600Y372609*
Y373547*
X145913Y374484*
X146537Y375109*
X147163Y375422*
X201225Y362163D02*
X200913Y361850D01*
X200287Y361537*
X199350*
X198725Y361850*
X198413Y362163*
X198100Y362787*
Y364037*
X198413Y364663*
X198725Y364975*
X199350Y365287*
X200287*
X200913Y364975*
X201225Y364663*
X203413Y361850D02*
X204037Y361537D01*
X204663*
X205287Y361850*
X205600Y362475*
X205287Y363100*
X204663Y363413*
X204037*
X204663D02*
X205287Y363725D01*
X205600Y364350*
X205287Y364975*
X204663Y365287*
X204037*
X203413Y364975*
X209663Y361537D02*
Y365287D01*
X208100Y362787*
X210600*
X215600Y156537D02*
X218725Y160287D01*
X215600D02*
X218725Y156537D01*
X221225D02*
X222475D01*
X221850D02*
Y160287D01*
X221225Y159663*
X233100Y239975D02*
X233413Y239350D01*
X234037Y239037*
X235287*
X235913Y239350*
X236225Y239975*
X235913Y240600*
X235287Y240913*
X234037*
X233413Y241225*
X233100Y241850*
X233413Y242475*
X234037Y242787*
X235287*
X235913Y242475*
X236225Y241850*
X238100Y242787D02*
X238413Y239037D01*
X239663Y240913*
X240913Y239037*
X241225Y242787*
X243725Y239037D02*
X244975D01*
X244350D02*
Y242787D01*
X243725Y242163*
X255287Y375913D02*
X255913Y375600D01*
X256225Y374975*
X255913Y374350*
X255287Y374037*
X253100*
Y377787*
X255287*
X255913Y377475*
X256225Y376850*
X255913Y376225*
X255287Y375913*
X253100*
X258725Y374037D02*
X259975D01*
X259350D02*
Y377787D01*
X258725Y377163*
X263100Y209975D02*
X263413Y209350D01*
X264037Y209037*
X265287*
X265913Y209350*
X266225Y209975*
X265913Y210600*
X265287Y210913*
X264037*
X263413Y211225*
X263100Y211850*
X263413Y212475*
X264037Y212787*
X265287*
X265913Y212475*
X266225Y211850*
X268100Y212787D02*
X268413Y209037D01*
X269663Y210913*
X270913Y209037*
X271225Y212787*
X273413Y209350D02*
X274037Y209037D01*
X274663*
X275287Y209350*
X275600Y209975*
X275287Y210600*
X274663Y210913*
X274037*
X274663D02*
X275287Y211225D01*
X275600Y211850*
X275287Y212475*
X274663Y212787*
X274037*
X273413Y212475*
D02*
D94*
X60600Y384750D03*
Y391250D03*
X63800Y384750D03*
Y391250D03*
X67000Y384750D03*
Y391250D03*
X70200Y384750D03*
Y391250D03*
X95600Y387250D03*
Y393750D03*
X98800Y387250D03*
Y393750D03*
X102000Y387250D03*
Y393750D03*
X105200Y387250D03*
Y393750D03*
X128100Y387250D03*
Y393750D03*
X131300Y387250D03*
Y393750D03*
X134500Y387250D03*
Y393750D03*
X137700Y387250D03*
Y393750D03*
X163100Y382384D03*
Y388884D03*
X166300Y382384D03*
Y388884D03*
X169500Y382384D03*
Y388884D03*
X172700Y382384D03*
Y388884D03*
X183100Y387250D03*
Y393750D03*
X186300Y387250D03*
Y393750D03*
X189500Y387250D03*
Y393750D03*
X192700Y387250D03*
Y393750D03*
D02*
D95*
X43100Y364829D03*
Y366797D03*
Y368766D03*
Y370734D03*
X48218Y364829D03*
Y366797D03*
Y368766D03*
Y370734D03*
X78100Y364829D03*
Y366797D03*
Y368766D03*
Y370734D03*
X83218Y364829D03*
Y366797D03*
Y368766D03*
Y370734D03*
X111700Y363429D03*
Y365397D03*
Y367366D03*
Y369334D03*
X116818Y363429D03*
Y365397D03*
Y367366D03*
Y369334D03*
X150600Y364829D03*
Y366797D03*
Y368766D03*
Y370734D03*
X155718Y364829D03*
Y366797D03*
Y368766D03*
Y370734D03*
D02*
D96*
X188631Y360482D03*
Y365600D03*
X190600Y360482D03*
Y365600D03*
X192569Y360482D03*
Y365600D03*
X194537Y360482D03*
Y365600D03*
D02*
D97*
X215600Y407000D03*
Y415600D03*
X218100Y407000D03*
X218159Y415600D03*
X220600Y407000D03*
X220718Y415600D03*
D02*
D98*
X263600Y339500D03*
Y366000D03*
D02*
D99*
X241600Y348800D03*
Y356700D03*
D02*
D100*
X70600Y18100D03*
Y118100D03*
Y453100D03*
Y463100D03*
X80600Y18100D03*
Y118100D03*
Y453100D03*
Y463100D03*
X90600Y18100D03*
Y118100D03*
Y453100D03*
Y463100D03*
X100600Y18100D03*
Y118100D03*
Y453100D03*
Y463100D03*
X110600Y18100D03*
Y118100D03*
Y453100D03*
Y463100D03*
X120600Y18100D03*
Y118100D03*
Y453100D03*
Y463100D03*
X123100Y143100D03*
X130600Y18100D03*
Y118100D03*
Y453100D03*
Y463100D03*
X133100Y143100D03*
X140600Y18100D03*
Y118100D03*
Y453100D03*
Y463100D03*
X143100Y143100D03*
X150600Y18100D03*
Y118100D03*
Y453100D03*
Y463100D03*
X153100Y143100D03*
X160600Y18100D03*
Y118100D03*
Y453100D03*
Y463100D03*
X170600Y18100D03*
Y118100D03*
Y453100D03*
Y463100D03*
X180600Y18100D03*
Y118100D03*
Y453100D03*
Y463100D03*
X190600Y18100D03*
Y118100D03*
Y453100D03*
Y463100D03*
X200600Y18100D03*
Y118100D03*
Y178100D03*
X210600Y18100D03*
Y118100D03*
Y178100D03*
X220600Y18100D03*
Y118100D03*
Y178100D03*
X230600Y18100D03*
Y118100D03*
Y178100D03*
X240600Y18100D03*
Y118100D03*
X250600Y18100D03*
Y118100D03*
D02*
D101*
X129600Y178100D03*
X136600D03*
X234600Y328100D03*
X241600D03*
D02*
D102*
X136466Y206206D03*
Y234994D03*
X139025Y206206D03*
Y234994D03*
X141585Y206206D03*
Y234994D03*
X144143Y206206D03*
Y234994D03*
X146702Y206206D03*
Y234994D03*
X149261Y206206D03*
Y234994D03*
X151820Y206206D03*
Y234994D03*
X154380Y206206D03*
Y234994D03*
X156939Y206206D03*
Y234994D03*
X159498Y206206D03*
Y234994D03*
X162057Y206206D03*
Y234994D03*
X164615Y206206D03*
Y234994D03*
X167175Y206206D03*
Y234994D03*
X169734Y206206D03*
Y234994D03*
D02*
D103*
X193100Y148100D03*
Y157500D03*
X210400Y148100D03*
Y157500D03*
D02*
D104*
X79400Y151800D03*
Y156100D03*
Y160400D03*
Y164700D03*
Y169000D03*
Y173300D03*
Y177600D03*
Y181900D03*
Y186200D03*
D02*
D105*
X38100Y148600D03*
Y180100D03*
D02*
D106*
X39700Y130100D03*
Y191100D03*
D02*
D107*
X77500Y133600D03*
D02*
D108*
X77100Y191100D03*
D02*
D109*
X61860Y410659D03*
Y420541D03*
X65600Y410659D03*
Y420541D03*
X69340Y410659D03*
Y420541D03*
X96860Y410659D03*
Y420541D03*
X100600Y410659D03*
Y420541D03*
X104340Y410659D03*
Y420541D03*
X129360Y410659D03*
Y420541D03*
X133100Y410659D03*
Y420541D03*
X136840Y410659D03*
Y420541D03*
X164360Y413159D03*
Y423041D03*
X168100Y413159D03*
Y423041D03*
X171840Y413159D03*
Y423041D03*
X186860Y413159D03*
Y423041D03*
X190600Y413159D03*
Y423041D03*
X194340Y413159D03*
Y423041D03*
X0Y0D02*
M02*
