G04 DesignSpark PCB Gerber Version 9.0 Build 5138 *
%FSLAX35Y35*%
%MOIN*%
%ADD93C,0.00500*%
%ADD140C,0.10000*%
X0Y0D02*
D02*
D93*
X27787Y23413D02*
X28413Y23100D01*
X28725Y22475*
X28413Y21850*
X27787Y21537*
X25600*
Y25287*
X27787*
X28413Y24975*
X28725Y24350*
X28413Y23725*
X27787Y23413*
X25600*
X27787Y470913D02*
X28413Y470600D01*
X28725Y469975*
X28413Y469350*
X27787Y469037*
X25600*
Y472787*
X27787*
X28413Y472475*
X28725Y471850*
X28413Y471225*
X27787Y470913*
X25600*
X48100Y154537D02*
Y158287D01*
X49975*
X50600Y157975*
X50913Y157663*
X51225Y157037*
Y155787*
X50913Y155163*
X50600Y154850*
X49975Y154537*
X48100*
Y186037D02*
Y189787D01*
X49975*
X50600Y189475*
X50913Y189163*
X51225Y188537*
Y187287*
X50913Y186663*
X50600Y186350*
X49975Y186037*
X48100*
X58100Y386537D02*
X59663Y390287D01*
X61225Y386537*
X58725Y388100D02*
X60600D01*
X65600Y364172D02*
X67163Y367922D01*
X68725Y364172*
X66225Y365734D02*
X68100D01*
X65600Y381672D02*
X67163Y385422D01*
X68725Y381672*
X66225Y383234D02*
X68100D01*
X70600Y356672D02*
X72163Y360422D01*
X73725Y356672*
X71225Y358234D02*
X73100D01*
X70600Y379172D02*
X72163Y382922D01*
X73725Y379172*
X71225Y380734D02*
X73100D01*
X70600Y404037D02*
X72163Y407787D01*
X73725Y404037*
X71225Y405600D02*
X73100D01*
X70600Y434037D02*
X72163Y437787D01*
X73725Y434037*
X71225Y435600D02*
X73100D01*
Y149037D02*
X74663Y152787D01*
X76225Y149037*
X73725Y150600D02*
X75600D01*
Y364172D02*
X77163Y367922D01*
X78725Y364172*
X76225Y365734D02*
X78100D01*
X75600Y374172D02*
X77163Y377922D01*
X78725Y374172*
X76225Y375734D02*
X78100D01*
X75600Y439037D02*
X77163Y442787D01*
X78725Y439037*
X76225Y440600D02*
X78100D01*
Y186537D02*
X79663Y190287D01*
X81225Y186537*
X78725Y188100D02*
X80600D01*
X83725Y24663D02*
X83413Y24350D01*
X82787Y24037*
X81850*
X81225Y24350*
X80913Y24663*
X80600Y25287*
Y26537*
X80913Y27163*
X81225Y27475*
X81850Y27787*
X82787*
X83413Y27475*
X83725Y27163*
Y124663D02*
X83413Y124350D01*
X82787Y124037*
X81850*
X81225Y124350*
X80913Y124663*
X80600Y125287*
Y126537*
X80913Y127163*
X81225Y127475*
X81850Y127787*
X82787*
X83413Y127475*
X83725Y127163*
X80600Y404037D02*
X82163Y407787D01*
X83725Y404037*
X81225Y405600D02*
X83100D01*
X80600Y434037D02*
X82163Y437787D01*
X83725Y434037*
X81225Y435600D02*
X83100D01*
X83725Y459663D02*
X83413Y459350D01*
X82787Y459037*
X81850*
X81225Y459350*
X80913Y459663*
X80600Y460287*
Y461537*
X80913Y462163*
X81225Y462475*
X81850Y462787*
X82787*
X83413Y462475*
X83725Y462163*
Y469663D02*
X83413Y469350D01*
X82787Y469037*
X81850*
X81225Y469350*
X80913Y469663*
X80600Y470287*
Y471537*
X80913Y472163*
X81225Y472475*
X81850Y472787*
X82787*
X83413Y472475*
X83725Y472163*
X88100Y149037D02*
X89663Y152787D01*
X91225Y149037*
X88725Y150600D02*
X90600D01*
X88100Y296537D02*
X89663Y300287D01*
X91225Y296537*
X88725Y298100D02*
X90600D01*
X88100Y386537D02*
X89663Y390287D01*
X91225Y386537*
X88725Y388100D02*
X90600D01*
X93725Y24663D02*
X93413Y24350D01*
X92787Y24037*
X91850*
X91225Y24350*
X90913Y24663*
X90600Y25287*
Y26537*
X90913Y27163*
X91225Y27475*
X91850Y27787*
X92787*
X93413Y27475*
X93725Y27163*
Y124663D02*
X93413Y124350D01*
X92787Y124037*
X91850*
X91225Y124350*
X90913Y124663*
X90600Y125287*
Y126537*
X90913Y127163*
X91225Y127475*
X91850Y127787*
X92787*
X93413Y127475*
X93725Y127163*
Y459663D02*
X93413Y459350D01*
X92787Y459037*
X91850*
X91225Y459350*
X90913Y459663*
X90600Y460287*
Y461537*
X90913Y462163*
X91225Y462475*
X91850Y462787*
X92787*
X93413Y462475*
X93725Y462163*
Y469663D02*
X93413Y469350D01*
X92787Y469037*
X91850*
X91225Y469350*
X90913Y469663*
X90600Y470287*
Y471537*
X90913Y472163*
X91225Y472475*
X91850Y472787*
X92787*
X93413Y472475*
X93725Y472163*
X93100Y434037D02*
X94663Y437787D01*
X96225Y434037*
X93725Y435600D02*
X95600D01*
Y139537D02*
X97163Y143287D01*
X98725Y139537*
X96225Y141100D02*
X98100D01*
X95600Y231537D02*
X97163Y235287D01*
X98725Y231537*
X96225Y233100D02*
X98100D01*
X103725Y24663D02*
X103413Y24350D01*
X102787Y24037*
X101850*
X101225Y24350*
X100913Y24663*
X100600Y25287*
Y26537*
X100913Y27163*
X101225Y27475*
X101850Y27787*
X102787*
X103413Y27475*
X103725Y27163*
Y124663D02*
X103413Y124350D01*
X102787Y124037*
X101850*
X101225Y124350*
X100913Y124663*
X100600Y125287*
Y126537*
X100913Y127163*
X101225Y127475*
X101850Y127787*
X102787*
X103413Y127475*
X103725Y127163*
X100600Y241537D02*
X102163Y245287D01*
X103725Y241537*
X101225Y243100D02*
X103100D01*
X100600Y254037D02*
X102163Y257787D01*
X103725Y254037*
X101225Y255600D02*
X103100D01*
X100600Y361672D02*
X102163Y365422D01*
X103725Y361672*
X101225Y363234D02*
X103100D01*
X100600Y379172D02*
X102163Y382922D01*
X103725Y379172*
X101225Y380734D02*
X103100D01*
X103725Y459663D02*
X103413Y459350D01*
X102787Y459037*
X101850*
X101225Y459350*
X100913Y459663*
X100600Y460287*
Y461537*
X100913Y462163*
X101225Y462475*
X101850Y462787*
X102787*
X103413Y462475*
X103725Y462163*
Y469663D02*
X103413Y469350D01*
X102787Y469037*
X101850*
X101225Y469350*
X100913Y469663*
X100600Y470287*
Y471537*
X100913Y472163*
X101225Y472475*
X101850Y472787*
X102787*
X103413Y472475*
X103725Y472163*
X105600Y220022D02*
X107163Y223772D01*
X108725Y220022*
X106225Y221585D02*
X108100D01*
X105600Y274037D02*
X107163Y277787D01*
X108725Y274037*
X106225Y275600D02*
X108100D01*
X105600Y364172D02*
X107163Y367922D01*
X108725Y364172*
X106225Y365734D02*
X108100D01*
X105600Y376672D02*
X107163Y380422D01*
X108725Y376672*
X106225Y378234D02*
X108100D01*
X105600Y406537D02*
X107163Y410287D01*
X108725Y406537*
X106225Y408100D02*
X108100D01*
X105600Y434037D02*
X107163Y437787D01*
X108725Y434037*
X106225Y435600D02*
X108100D01*
X105600Y444037D02*
X107163Y447787D01*
X108725Y444037*
X106225Y445600D02*
X108100D01*
X113725Y24663D02*
X113413Y24350D01*
X112787Y24037*
X111850*
X111225Y24350*
X110913Y24663*
X110600Y25287*
Y26537*
X110913Y27163*
X111225Y27475*
X111850Y27787*
X112787*
X113413Y27475*
X113725Y27163*
Y124663D02*
X113413Y124350D01*
X112787Y124037*
X111850*
X111225Y124350*
X110913Y124663*
X110600Y125287*
Y126537*
X110913Y127163*
X111225Y127475*
X111850Y127787*
X112787*
X113413Y127475*
X113725Y127163*
X110600Y224037D02*
X112163Y227787D01*
X113725Y224037*
X111225Y225600D02*
X113100D01*
X110600Y366672D02*
X112163Y370422D01*
X113725Y366672*
X111225Y368234D02*
X113100D01*
X110600Y374172D02*
X112163Y377922D01*
X113725Y374172*
X111225Y375734D02*
X113100D01*
X110600Y439037D02*
X112163Y442787D01*
X113725Y439037*
X111225Y440600D02*
X113100D01*
X113725Y459663D02*
X113413Y459350D01*
X112787Y459037*
X111850*
X111225Y459350*
X110913Y459663*
X110600Y460287*
Y461537*
X110913Y462163*
X111225Y462475*
X111850Y462787*
X112787*
X113413Y462475*
X113725Y462163*
Y469663D02*
X113413Y469350D01*
X112787Y469037*
X111850*
X111225Y469350*
X110913Y469663*
X110600Y470287*
Y471537*
X110913Y472163*
X111225Y472475*
X111850Y472787*
X112787*
X113413Y472475*
X113725Y472163*
X115600Y194037D02*
X117163Y197787D01*
X118725Y194037*
X116225Y195600D02*
X118100D01*
X115600Y406537D02*
X117163Y410287D01*
X118725Y406537*
X116225Y408100D02*
X118100D01*
X115600Y434037D02*
X117163Y437787D01*
X118725Y434037*
X116225Y435600D02*
X118100D01*
Y304037D02*
X119663Y307787D01*
X121225Y304037*
X118725Y305600D02*
X120600D01*
X123725Y24663D02*
X123413Y24350D01*
X122787Y24037*
X121850*
X121225Y24350*
X120913Y24663*
X120600Y25287*
Y26537*
X120913Y27163*
X121225Y27475*
X121850Y27787*
X122787*
X123413Y27475*
X123725Y27163*
Y124663D02*
X123413Y124350D01*
X122787Y124037*
X121850*
X121225Y124350*
X120913Y124663*
X120600Y125287*
Y126537*
X120913Y127163*
X121225Y127475*
X121850Y127787*
X122787*
X123413Y127475*
X123725Y127163*
Y459663D02*
X123413Y459350D01*
X122787Y459037*
X121850*
X121225Y459350*
X120913Y459663*
X120600Y460287*
Y461537*
X120913Y462163*
X121225Y462475*
X121850Y462787*
X122787*
X123413Y462475*
X123725Y462163*
Y469663D02*
X123413Y469350D01*
X122787Y469037*
X121850*
X121225Y469350*
X120913Y469663*
X120600Y470287*
Y471537*
X120913Y472163*
X121225Y472475*
X121850Y472787*
X122787*
X123413Y472475*
X123725Y472163*
X121700Y386537D02*
X123263Y390287D01*
X124825Y386537*
X122325Y388100D02*
X124200D01*
X125600Y220022D02*
X127163Y223772D01*
X128725Y220022*
X126225Y221585D02*
X128100D01*
X125600Y434037D02*
X127163Y437787D01*
X128725Y434037*
X126225Y435600D02*
X128100D01*
X133725Y24663D02*
X133413Y24350D01*
X132787Y24037*
X131850*
X131225Y24350*
X130913Y24663*
X130600Y25287*
Y26537*
X130913Y27163*
X131225Y27475*
X131850Y27787*
X132787*
X133413Y27475*
X133725Y27163*
Y124663D02*
X133413Y124350D01*
X132787Y124037*
X131850*
X131225Y124350*
X130913Y124663*
X130600Y125287*
Y126537*
X130913Y127163*
X131225Y127475*
X131850Y127787*
X132787*
X133413Y127475*
X133725Y127163*
X130600Y294037D02*
X132163Y297787D01*
X133725Y294037*
X131225Y295600D02*
X133100D01*
X130600Y309037D02*
X132163Y312787D01*
X133725Y309037*
X131225Y310600D02*
X133100D01*
X130600Y444037D02*
X132163Y447787D01*
X133725Y444037*
X131225Y445600D02*
X133100D01*
X133725Y459663D02*
X133413Y459350D01*
X132787Y459037*
X131850*
X131225Y459350*
X130913Y459663*
X130600Y460287*
Y461537*
X130913Y462163*
X131225Y462475*
X131850Y462787*
X132787*
X133413Y462475*
X133725Y462163*
Y469663D02*
X133413Y469350D01*
X132787Y469037*
X131850*
X131225Y469350*
X130913Y469663*
X130600Y470287*
Y471537*
X130913Y472163*
X131225Y472475*
X131850Y472787*
X132787*
X133413Y472475*
X133725Y472163*
X133100Y139537D02*
X134663Y143287D01*
X136225Y139537*
X133725Y141100D02*
X135600D01*
X136225Y149663D02*
X135913Y149350D01*
X135287Y149037*
X134350*
X133725Y149350*
X133413Y149663*
X133100Y150287*
Y151537*
X133413Y152163*
X133725Y152475*
X134350Y152787*
X135287*
X135913Y152475*
X136225Y152163*
X133100Y241537D02*
X134663Y245287D01*
X136225Y241537*
X133725Y243100D02*
X135600D01*
X133100Y377772D02*
X134663Y381522D01*
X136225Y377772*
X133725Y379334D02*
X135600D01*
Y259037D02*
X137163Y262787D01*
X138725Y259037*
X136225Y260600D02*
X138100D01*
X135600Y271537D02*
X137163Y275287D01*
X138725Y271537*
X136225Y273100D02*
X138100D01*
X135600Y434037D02*
X137163Y437787D01*
X138725Y434037*
X136225Y435600D02*
X138100D01*
Y406537D02*
X139663Y410287D01*
X141225Y406537*
X138725Y408100D02*
X140600D01*
X139200Y375272D02*
X140763Y379022D01*
X142325Y375272*
X139825Y376834D02*
X141700D01*
X143725Y24663D02*
X143413Y24350D01*
X142787Y24037*
X141850*
X141225Y24350*
X140913Y24663*
X140600Y25287*
Y26537*
X140913Y27163*
X141225Y27475*
X141850Y27787*
X142787*
X143413Y27475*
X143725Y27163*
X140600Y94037D02*
X142163Y97787D01*
X143725Y94037*
X141225Y95600D02*
X143100D01*
X143725Y124663D02*
X143413Y124350D01*
X142787Y124037*
X141850*
X141225Y124350*
X140913Y124663*
X140600Y125287*
Y126537*
X140913Y127163*
X141225Y127475*
X141850Y127787*
X142787*
X143413Y127475*
X143725Y127163*
Y459663D02*
X143413Y459350D01*
X142787Y459037*
X141850*
X141225Y459350*
X140913Y459663*
X140600Y460287*
Y461537*
X140913Y462163*
X141225Y462475*
X141850Y462787*
X142787*
X143413Y462475*
X143725Y462163*
Y469663D02*
X143413Y469350D01*
X142787Y469037*
X141850*
X141225Y469350*
X140913Y469663*
X140600Y470287*
Y471537*
X140913Y472163*
X141225Y472475*
X141850Y472787*
X142787*
X143413Y472475*
X143725Y472163*
X146225Y149663D02*
X145913Y149350D01*
X145287Y149037*
X144350*
X143725Y149350*
X143413Y149663*
X143100Y150287*
Y151537*
X143413Y152163*
X143725Y152475*
X144350Y152787*
X145287*
X145913Y152475*
X146225Y152163*
X143100Y161537D02*
X144663Y165287D01*
X146225Y161537*
X143725Y163100D02*
X145600D01*
X143100Y194037D02*
X144663Y197787D01*
X146225Y194037*
X143725Y195600D02*
X145600D01*
X143100Y204037D02*
X144663Y207787D01*
X146225Y204037*
X143725Y205600D02*
X145600D01*
X143100Y359172D02*
X144663Y362922D01*
X146225Y359172*
X143725Y360734D02*
X145600D01*
X143100Y439037D02*
X144663Y442787D01*
X146225Y439037*
X143725Y440600D02*
X145600D01*
X144500Y374037D02*
X146063Y377787D01*
X147625Y374037*
X145125Y375600D02*
X147000D01*
X145334Y296508D02*
X146897Y300258D01*
X148459Y296508*
X145959Y298070D02*
X147834D01*
X145600Y221537D02*
X147163Y225287D01*
X148725Y221537*
X146225Y223100D02*
X148100D01*
X145600Y254037D02*
X147163Y257787D01*
X148725Y254037*
X146225Y255600D02*
X148100D01*
X145600Y271537D02*
X147163Y275287D01*
X148725Y271537*
X146225Y273100D02*
X148100D01*
X145600Y279037D02*
X147163Y282787D01*
X148725Y279037*
X146225Y280600D02*
X148100D01*
Y199037D02*
X149663Y202787D01*
X151225Y199037*
X148725Y200600D02*
X150600D01*
X148100Y319037D02*
X149663Y322787D01*
X151225Y319037*
X148725Y320600D02*
X150600D01*
X148100Y361672D02*
X149663Y365422D01*
X151225Y361672*
X148725Y363234D02*
X150600D01*
X148100Y406537D02*
X149663Y410287D01*
X151225Y406537*
X148725Y408100D02*
X150600D01*
X148100Y434037D02*
X149663Y437787D01*
X151225Y434037*
X148725Y435600D02*
X150600D01*
X153725Y24663D02*
X153413Y24350D01*
X152787Y24037*
X151850*
X151225Y24350*
X150913Y24663*
X150600Y25287*
Y26537*
X150913Y27163*
X151225Y27475*
X151850Y27787*
X152787*
X153413Y27475*
X153725Y27163*
Y124663D02*
X153413Y124350D01*
X152787Y124037*
X151850*
X151225Y124350*
X150913Y124663*
X150600Y125287*
Y126537*
X150913Y127163*
X151225Y127475*
X151850Y127787*
X152787*
X153413Y127475*
X153725Y127163*
Y459663D02*
X153413Y459350D01*
X152787Y459037*
X151850*
X151225Y459350*
X150913Y459663*
X150600Y460287*
Y461537*
X150913Y462163*
X151225Y462475*
X151850Y462787*
X152787*
X153413Y462475*
X153725Y462163*
Y469663D02*
X153413Y469350D01*
X152787Y469037*
X151850*
X151225Y469350*
X150913Y469663*
X150600Y470287*
Y471537*
X150913Y472163*
X151225Y472475*
X151850Y472787*
X152787*
X153413Y472475*
X153725Y472163*
X156225Y149663D02*
X155913Y149350D01*
X155287Y149037*
X154350*
X153725Y149350*
X153413Y149663*
X153100Y150287*
Y151537*
X153413Y152163*
X153725Y152475*
X154350Y152787*
X155287*
X155913Y152475*
X156225Y152163*
X153100Y271537D02*
X154663Y275287D01*
X156225Y271537*
X153725Y273100D02*
X155600D01*
X153100Y364172D02*
X154663Y367922D01*
X156225Y364172*
X153725Y365734D02*
X155600D01*
X153100Y444037D02*
X154663Y447787D01*
X156225Y444037*
X153725Y445600D02*
X155600D01*
Y199037D02*
X157163Y202787D01*
X158725Y199037*
X156225Y200600D02*
X158100D01*
Y229037D02*
X159663Y232787D01*
X161225Y229037*
X158725Y230600D02*
X160600D01*
X158100Y259037D02*
X159663Y262787D01*
X161225Y259037*
X158725Y260600D02*
X160600D01*
X160466Y386537D02*
X162028Y390287D01*
X163591Y386537*
X161091Y388100D02*
X162966D01*
X163725Y24663D02*
X163413Y24350D01*
X162787Y24037*
X161850*
X161225Y24350*
X160913Y24663*
X160600Y25287*
Y26537*
X160913Y27163*
X161225Y27475*
X161850Y27787*
X162787*
X163413Y27475*
X163725Y27163*
Y124663D02*
X163413Y124350D01*
X162787Y124037*
X161850*
X161225Y124350*
X160913Y124663*
X160600Y125287*
Y126537*
X160913Y127163*
X161225Y127475*
X161850Y127787*
X162787*
X163413Y127475*
X163725Y127163*
Y459663D02*
X163413Y459350D01*
X162787Y459037*
X161850*
X161225Y459350*
X160913Y459663*
X160600Y460287*
Y461537*
X160913Y462163*
X161225Y462475*
X161850Y462787*
X162787*
X163413Y462475*
X163725Y462163*
Y469663D02*
X163413Y469350D01*
X162787Y469037*
X161850*
X161225Y469350*
X160913Y469663*
X160600Y470287*
Y471537*
X160913Y472163*
X161225Y472475*
X161850Y472787*
X162787*
X163413Y472475*
X163725Y472163*
X161584Y296537D02*
X163147Y300287D01*
X164709Y296537*
X162209Y298100D02*
X164084D01*
X166225Y149663D02*
X165913Y149350D01*
X165287Y149037*
X164350*
X163725Y149350*
X163413Y149663*
X163100Y150287*
Y151537*
X163413Y152163*
X163725Y152475*
X164350Y152787*
X165287*
X165913Y152475*
X166225Y152163*
X165600Y189037D02*
X167163Y192787D01*
X168725Y189037*
X166225Y190600D02*
X168100D01*
X165600Y271537D02*
X167163Y275287D01*
X168725Y271537*
X166225Y273100D02*
X168100D01*
X165600Y309037D02*
X167163Y312787D01*
X168725Y309037*
X166225Y310600D02*
X168100D01*
X165600Y354172D02*
X167163Y357922D01*
X168725Y354172*
X166225Y355734D02*
X168100D01*
Y179037D02*
X169663Y182787D01*
X171225Y179037*
X168725Y180600D02*
X170600D01*
X168100Y266537D02*
X169663Y270287D01*
X171225Y266537*
X168725Y268100D02*
X170600D01*
X173725Y24663D02*
X173413Y24350D01*
X172787Y24037*
X171850*
X171225Y24350*
X170913Y24663*
X170600Y25287*
Y26537*
X170913Y27163*
X171225Y27475*
X171850Y27787*
X172787*
X173413Y27475*
X173725Y27163*
Y124663D02*
X173413Y124350D01*
X172787Y124037*
X171850*
X171225Y124350*
X170913Y124663*
X170600Y125287*
Y126537*
X170913Y127163*
X171225Y127475*
X171850Y127787*
X172787*
X173413Y127475*
X173725Y127163*
X170600Y194037D02*
X172163Y197787D01*
X173725Y194037*
X171225Y195600D02*
X173100D01*
X173725Y459663D02*
X173413Y459350D01*
X172787Y459037*
X171850*
X171225Y459350*
X170913Y459663*
X170600Y460287*
Y461537*
X170913Y462163*
X171225Y462475*
X171850Y462787*
X172787*
X173413Y462475*
X173725Y462163*
Y469663D02*
X173413Y469350D01*
X172787Y469037*
X171850*
X171225Y469350*
X170913Y469663*
X170600Y470287*
Y471537*
X170913Y472163*
X171225Y472475*
X171850Y472787*
X172787*
X173413Y472475*
X173725Y472163*
X173100Y221537D02*
X174663Y225287D01*
X176225Y221537*
X173725Y223100D02*
X175600D01*
X173100Y231537D02*
X174663Y235287D01*
X176225Y231537*
X173725Y233100D02*
X175600D01*
X173100Y254037D02*
X174663Y257787D01*
X176225Y254037*
X173725Y255600D02*
X175600D01*
X173100Y304037D02*
X174663Y307787D01*
X176225Y304037*
X173725Y305600D02*
X175600D01*
X173100Y319037D02*
X174663Y322787D01*
X176225Y319037*
X173725Y320600D02*
X175600D01*
X173100Y364172D02*
X174663Y367922D01*
X176225Y364172*
X173725Y365734D02*
X175600D01*
X173100Y379172D02*
X174663Y382922D01*
X176225Y379172*
X173725Y380734D02*
X175600D01*
X173100Y436537D02*
X174663Y440287D01*
X176225Y436537*
X173725Y438100D02*
X175600D01*
X174360Y404037D02*
X175922Y407787D01*
X177485Y404037*
X174985Y405600D02*
X176860D01*
X175600Y199037D02*
X177163Y202787D01*
X178725Y199037*
X176225Y200600D02*
X178100D01*
Y369172D02*
X179663Y372922D01*
X181225Y369172*
X178725Y370734D02*
X180600D01*
X178100Y376672D02*
X179663Y380422D01*
X181225Y376672*
X178725Y378234D02*
X180600D01*
X178100Y441537D02*
X179663Y445287D01*
X181225Y441537*
X178725Y443100D02*
X180600D01*
X183725Y24663D02*
X183413Y24350D01*
X182787Y24037*
X181850*
X181225Y24350*
X180913Y24663*
X180600Y25287*
Y26537*
X180913Y27163*
X181225Y27475*
X181850Y27787*
X182787*
X183413Y27475*
X183725Y27163*
Y124663D02*
X183413Y124350D01*
X182787Y124037*
X181850*
X181225Y124350*
X180913Y124663*
X180600Y125287*
Y126537*
X180913Y127163*
X181225Y127475*
X181850Y127787*
X182787*
X183413Y127475*
X183725Y127163*
X180600Y259037D02*
X182163Y262787D01*
X183725Y259037*
X181225Y260600D02*
X183100D01*
X180600Y289037D02*
X182163Y292787D01*
X183725Y289037*
X181225Y290600D02*
X183100D01*
X183725Y459663D02*
X183413Y459350D01*
X182787Y459037*
X181850*
X181225Y459350*
X180913Y459663*
X180600Y460287*
Y461537*
X180913Y462163*
X181225Y462475*
X181850Y462787*
X182787*
X183413Y462475*
X183725Y462163*
Y469663D02*
X183413Y469350D01*
X182787Y469037*
X181850*
X181225Y469350*
X180913Y469663*
X180600Y470287*
Y471537*
X180913Y472163*
X181225Y472475*
X181850Y472787*
X182787*
X183413Y472475*
X183725Y472163*
X181840Y404037D02*
X183403Y407787D01*
X184965Y404037*
X182465Y405600D02*
X184340D01*
X183100Y354172D02*
X184663Y357922D01*
X186225Y354172*
X183725Y355734D02*
X185600D01*
X183100Y436537D02*
X184663Y440287D01*
X186225Y436537*
X183725Y438100D02*
X185600D01*
Y234037D02*
X187163Y237787D01*
X188725Y234037*
X186225Y235600D02*
X188100D01*
Y194037D02*
X189663Y197787D01*
X191225Y194037*
X188725Y195600D02*
X190600D01*
X188100Y266537D02*
X189663Y270287D01*
X191225Y266537*
X188725Y268100D02*
X190600D01*
X193725Y24663D02*
X193413Y24350D01*
X192787Y24037*
X191850*
X191225Y24350*
X190913Y24663*
X190600Y25287*
Y26537*
X190913Y27163*
X191225Y27475*
X191850Y27787*
X192787*
X193413Y27475*
X193725Y27163*
Y124663D02*
X193413Y124350D01*
X192787Y124037*
X191850*
X191225Y124350*
X190913Y124663*
X190600Y125287*
Y126537*
X190913Y127163*
X191225Y127475*
X191850Y127787*
X192787*
X193413Y127475*
X193725Y127163*
Y459663D02*
X193413Y459350D01*
X192787Y459037*
X191850*
X191225Y459350*
X190913Y459663*
X190600Y460287*
Y461537*
X190913Y462163*
X191225Y462475*
X191850Y462787*
X192787*
X193413Y462475*
X193725Y462163*
Y469663D02*
X193413Y469350D01*
X192787Y469037*
X191850*
X191225Y469350*
X190913Y469663*
X190600Y470287*
Y471537*
X190913Y472163*
X191225Y472475*
X191850Y472787*
X192787*
X193413Y472475*
X193725Y472163*
X193100Y301537D02*
X194663Y305287D01*
X196225Y301537*
X193725Y303100D02*
X195600D01*
X193100Y314037D02*
X194663Y317787D01*
X196225Y314037*
X193725Y315600D02*
X195600D01*
X193100Y354037D02*
X194663Y357787D01*
X196225Y354037*
X193725Y355600D02*
X195600D01*
X193100Y379037D02*
X194663Y382787D01*
X196225Y379037*
X193725Y380600D02*
X195600D01*
X195500Y291537D02*
X197063Y295287D01*
X198625Y291537*
X196125Y293100D02*
X198000D01*
X195600Y409037D02*
X197163Y412787D01*
X198725Y409037*
X196225Y410600D02*
X198100D01*
X195600Y436537D02*
X197163Y440287D01*
X198725Y436537*
X196225Y438100D02*
X198100D01*
Y173937D02*
X199663Y177687D01*
X201225Y173937*
X198725Y175500D02*
X200600D01*
X203725Y24663D02*
X203413Y24350D01*
X202787Y24037*
X201850*
X201225Y24350*
X200913Y24663*
X200600Y25287*
Y26537*
X200913Y27163*
X201225Y27475*
X201850Y27787*
X202787*
X203413Y27475*
X203725Y27163*
Y124663D02*
X203413Y124350D01*
X202787Y124037*
X201850*
X201225Y124350*
X200913Y124663*
X200600Y125287*
Y126537*
X200913Y127163*
X201225Y127475*
X201850Y127787*
X202787*
X203413Y127475*
X203725Y127163*
X200600Y406537D02*
X202163Y410287D01*
X203725Y406537*
X201225Y408100D02*
X203100D01*
X200600Y441537D02*
X202163Y445287D01*
X203725Y441537*
X201225Y443100D02*
X203100D01*
X203725Y459663D02*
X203413Y459350D01*
X202787Y459037*
X201850*
X201225Y459350*
X200913Y459663*
X200600Y460287*
Y461537*
X200913Y462163*
X201225Y462475*
X201850Y462787*
X202787*
X203413Y462475*
X203725Y462163*
Y469663D02*
X203413Y469350D01*
X202787Y469037*
X201850*
X201225Y469350*
X200913Y469663*
X200600Y470287*
Y471537*
X200913Y472163*
X201225Y472475*
X201850Y472787*
X202787*
X203413Y472475*
X203725Y472163*
X204537Y379037D02*
X206100Y382787D01*
X207662Y379037*
X205162Y380600D02*
X207037D01*
X208100Y446537D02*
X209663Y450287D01*
X211225Y446537*
X208725Y448100D02*
X210600D01*
X213725Y24663D02*
X213413Y24350D01*
X212787Y24037*
X211850*
X211225Y24350*
X210913Y24663*
X210600Y25287*
Y26537*
X210913Y27163*
X211225Y27475*
X211850Y27787*
X212787*
X213413Y27475*
X213725Y27163*
Y124663D02*
X213413Y124350D01*
X212787Y124037*
X211850*
X211225Y124350*
X210913Y124663*
X210600Y125287*
Y126537*
X210913Y127163*
X211225Y127475*
X211850Y127787*
X212787*
X213413Y127475*
X213725Y127163*
X210600Y169037D02*
X212163Y172787D01*
X213725Y169037*
X211225Y170600D02*
X213100D01*
X213725Y184663D02*
X213413Y184350D01*
X212787Y184037*
X211850*
X211225Y184350*
X210913Y184663*
X210600Y185287*
Y186537*
X210913Y187163*
X211225Y187475*
X211850Y187787*
X212787*
X213413Y187475*
X213725Y187163*
X210600Y204037D02*
X212163Y207787D01*
X213725Y204037*
X211225Y205600D02*
X213100D01*
X210600Y399037D02*
X212163Y402787D01*
X213725Y399037*
X211225Y400600D02*
X213100D01*
X223725Y24663D02*
X223413Y24350D01*
X222787Y24037*
X221850*
X221225Y24350*
X220913Y24663*
X220600Y25287*
Y26537*
X220913Y27163*
X221225Y27475*
X221850Y27787*
X222787*
X223413Y27475*
X223725Y27163*
Y124663D02*
X223413Y124350D01*
X222787Y124037*
X221850*
X221225Y124350*
X220913Y124663*
X220600Y125287*
Y126537*
X220913Y127163*
X221225Y127475*
X221850Y127787*
X222787*
X223413Y127475*
X223725Y127163*
Y184663D02*
X223413Y184350D01*
X222787Y184037*
X221850*
X221225Y184350*
X220913Y184663*
X220600Y185287*
Y186537*
X220913Y187163*
X221225Y187475*
X221850Y187787*
X222787*
X223413Y187475*
X223725Y187163*
X220600Y221537D02*
X222163Y225287D01*
X223725Y221537*
X221225Y223100D02*
X223100D01*
X220600Y470437D02*
X222163Y474187D01*
X223725Y470437*
X221225Y472000D02*
X223100D01*
X225600Y399037D02*
X227163Y402787D01*
X228725Y399037*
X226225Y400600D02*
X228100D01*
X225600Y441537D02*
X227163Y445287D01*
X228725Y441537*
X226225Y443100D02*
X228100D01*
X233725Y24663D02*
X233413Y24350D01*
X232787Y24037*
X231850*
X231225Y24350*
X230913Y24663*
X230600Y25287*
Y26537*
X230913Y27163*
X231225Y27475*
X231850Y27787*
X232787*
X233413Y27475*
X233725Y27163*
Y124663D02*
X233413Y124350D01*
X232787Y124037*
X231850*
X231225Y124350*
X230913Y124663*
X230600Y125287*
Y126537*
X230913Y127163*
X231225Y127475*
X231850Y127787*
X232787*
X233413Y127475*
X233725Y127163*
Y184663D02*
X233413Y184350D01*
X232787Y184037*
X231850*
X231225Y184350*
X230913Y184663*
X230600Y185287*
Y186537*
X230913Y187163*
X231225Y187475*
X231850Y187787*
X232787*
X233413Y187475*
X233725Y187163*
X230600Y199037D02*
X232163Y202787D01*
X233725Y199037*
X231225Y200600D02*
X233100D01*
X235600Y428037D02*
X237163Y431787D01*
X238725Y428037*
X236225Y429600D02*
X238100D01*
X235600Y470437D02*
X237163Y474187D01*
X238725Y470437*
X236225Y472000D02*
X238100D01*
Y304037D02*
X239663Y307787D01*
X241225Y304037*
X238725Y305600D02*
X240600D01*
X239100Y249037D02*
X240663Y252787D01*
X242225Y249037*
X239725Y250600D02*
X241600D01*
X243725Y24663D02*
X243413Y24350D01*
X242787Y24037*
X241850*
X241225Y24350*
X240913Y24663*
X240600Y25287*
Y26537*
X240913Y27163*
X241225Y27475*
X241850Y27787*
X242787*
X243413Y27475*
X243725Y27163*
Y124663D02*
X243413Y124350D01*
X242787Y124037*
X241850*
X241225Y124350*
X240913Y124663*
X240600Y125287*
Y126537*
X240913Y127163*
X241225Y127475*
X241850Y127787*
X242787*
X243413Y127475*
X243725Y127163*
Y184663D02*
X243413Y184350D01*
X242787Y184037*
X241850*
X241225Y184350*
X240913Y184663*
X240600Y185287*
Y186537*
X240913Y187163*
X241225Y187475*
X241850Y187787*
X242787*
X243413Y187475*
X243725Y187163*
X253725Y24663D02*
X253413Y24350D01*
X252787Y24037*
X251850*
X251225Y24350*
X250913Y24663*
X250600Y25287*
Y26537*
X250913Y27163*
X251225Y27475*
X251850Y27787*
X252787*
X253413Y27475*
X253725Y27163*
Y124663D02*
X253413Y124350D01*
X252787Y124037*
X251850*
X251225Y124350*
X250913Y124663*
X250600Y125287*
Y126537*
X250913Y127163*
X251225Y127475*
X251850Y127787*
X252787*
X253413Y127475*
X253725Y127163*
X250600Y428037D02*
X252163Y431787D01*
X253725Y428037*
X251225Y429600D02*
X253100D01*
X263725Y24663D02*
X263413Y24350D01*
X262787Y24037*
X261850*
X261225Y24350*
X260913Y24663*
X260600Y25287*
Y26537*
X260913Y27163*
X261225Y27475*
X261850Y27787*
X262787*
X263413Y27475*
X263725Y27163*
Y124663D02*
X263413Y124350D01*
X262787Y124037*
X261850*
X261225Y124350*
X260913Y124663*
X260600Y125287*
Y126537*
X260913Y127163*
X261225Y127475*
X261850Y127787*
X262787*
X263413Y127475*
X263725Y127163*
X265600Y426396D02*
X267163Y430146D01*
X268725Y426396*
X266225Y427958D02*
X268100D01*
X265600Y441537D02*
X267163Y445287D01*
X268725Y441537*
X266225Y443100D02*
X268100D01*
Y176537D02*
X269663Y180287D01*
X271225Y176537*
X268725Y178100D02*
X270600D01*
X285287Y23413D02*
X285913Y23100D01*
X286225Y22475*
X285913Y21850*
X285287Y21537*
X283100*
Y25287*
X285287*
X285913Y24975*
X286225Y24350*
X285913Y23725*
X285287Y23413*
X283100*
Y419037D02*
X284663Y422787D01*
X286225Y419037*
X283725Y420600D02*
X285600D01*
X285287Y470913D02*
X285913Y470600D01*
X286225Y469975*
X285913Y469350*
X285287Y469037*
X283100*
Y472787*
X285287*
X285913Y472475*
X286225Y471850*
X285913Y471225*
X285287Y470913*
X283100*
D02*
D140*
X15600Y15600D03*
Y463100D03*
X38100Y148600D03*
Y180100D03*
X48100Y380600D03*
X55600Y358234D03*
Y375734D03*
X60600Y350734D03*
Y373234D03*
Y398100D03*
Y428100D03*
X63100Y143100D03*
X65600Y358234D03*
Y368234D03*
Y433100D03*
X68100Y180600D03*
X70600Y18100D03*
Y118100D03*
Y398100D03*
Y428100D03*
Y453100D03*
Y463100D03*
X78100Y143100D03*
Y290600D03*
Y380600D03*
X80600Y18100D03*
Y118100D03*
Y453100D03*
Y463100D03*
X83100Y428100D03*
X85600Y133600D03*
Y225600D03*
X90600Y18100D03*
Y118100D03*
Y235600D03*
Y248100D03*
Y355734D03*
Y373234D03*
Y453100D03*
Y463100D03*
X95600Y214085D03*
Y268100D03*
Y358234D03*
Y370734D03*
Y400600D03*
Y428100D03*
Y438100D03*
X100600Y18100D03*
Y118100D03*
Y218100D03*
Y360734D03*
Y368234D03*
Y433100D03*
Y453100D03*
Y463100D03*
X105600Y188100D03*
Y400600D03*
Y428100D03*
X108100Y298100D03*
X110600Y18100D03*
Y118100D03*
Y453100D03*
Y463100D03*
X111700Y380600D03*
X115600Y214085D03*
Y428100D03*
X120600Y18100D03*
Y118100D03*
Y288100D03*
Y303100D03*
Y438100D03*
Y453100D03*
Y463100D03*
X123100Y133600D03*
Y143100D03*
Y235600D03*
Y371834D03*
X125600Y253100D03*
Y265600D03*
Y428100D03*
X128100Y400600D03*
X129200Y369334D03*
X130600Y18100D03*
Y88100D03*
Y118100D03*
Y453100D03*
Y463100D03*
X133100Y143100D03*
Y155600D03*
Y188100D03*
Y198100D03*
Y353234D03*
Y433100D03*
X134500Y368100D03*
X135334Y290570D03*
X135600Y215600D03*
Y248100D03*
Y265600D03*
Y273100D03*
X138100Y193100D03*
Y313100D03*
Y355734D03*
Y400600D03*
Y428100D03*
X140600Y18100D03*
Y118100D03*
Y453100D03*
Y463100D03*
X143100Y143100D03*
Y265600D03*
Y358234D03*
Y438100D03*
X145600Y193100D03*
X148100Y223100D03*
Y253100D03*
X150466Y380600D03*
X150600Y18100D03*
Y118100D03*
Y453100D03*
Y463100D03*
X151584Y290600D03*
X153100Y143100D03*
X155600Y183100D03*
Y265600D03*
Y303100D03*
Y348234D03*
X158100Y173100D03*
Y260600D03*
X160600Y18100D03*
Y118100D03*
Y188100D03*
Y453100D03*
Y463100D03*
X163100Y215600D03*
Y225600D03*
Y248100D03*
Y298100D03*
Y313100D03*
Y358234D03*
Y373234D03*
Y430600D03*
X164360Y398100D03*
X165600Y193100D03*
X168100Y363234D03*
Y370734D03*
Y435600D03*
X170600Y18100D03*
Y118100D03*
Y253100D03*
Y283100D03*
Y453100D03*
Y463100D03*
X171840Y398100D03*
X173100Y348234D03*
Y430600D03*
X175600Y228100D03*
X178100Y188100D03*
Y260600D03*
X180600Y18100D03*
Y118100D03*
Y453100D03*
Y463100D03*
X183100Y295600D03*
Y308100D03*
Y348100D03*
Y373100D03*
X185500Y285600D03*
X185600Y403100D03*
Y430600D03*
X188100Y168000D03*
X190600Y18100D03*
Y118100D03*
Y400600D03*
Y435600D03*
Y453100D03*
Y463100D03*
X194537Y373100D03*
X198100Y440600D03*
X200600Y18100D03*
Y118100D03*
Y163100D03*
Y178100D03*
Y198100D03*
Y393100D03*
X210600Y18100D03*
Y118100D03*
Y178100D03*
Y215600D03*
Y464500D03*
X215600Y393100D03*
Y435600D03*
X220600Y18100D03*
Y118100D03*
Y178100D03*
Y193100D03*
X225600Y422100D03*
Y464500D03*
X228100Y298100D03*
X229100Y243100D03*
X230600Y18100D03*
Y118100D03*
Y178100D03*
X240600Y18100D03*
Y118100D03*
Y422100D03*
X250600Y18100D03*
Y118100D03*
X255600Y420458D03*
Y435600D03*
X258100Y170600D03*
X273100Y15600D03*
Y413100D03*
Y463100D03*
X0Y0D02*
M02*
